<svg width="60" height="65" viewBox="0 0 60 65" fill="none" xmlns="http://www.w3.org/2000/svg">
<g id="Anniversaire">
<path id="Vector" d="M55.6324 41.4082H4.37076C2.3728 41.4082 0.753143 43.0279 0.753143 45.0258V60.883C0.753143 62.881 2.3728 64.5006 4.37076 64.5006H55.6324C57.6303 64.5006 59.25 62.881 59.25 60.883V45.0258C59.25 43.0279 57.6303 41.4082 55.6324 41.4082Z" fill="#FFAB7D"/>
<path id="Vector_2" d="M21.3163 64.4978H4.37076C4.07532 64.4918 2.80916 64.4285 1.81733 63.4367C1.1119 62.7282 0.897868 61.9022 0.849634 61.7093C0.786325 61.444 0.753143 61.1666 0.753143 60.8833V56.5723C1.58218 57.3018 2.55594 58.0796 3.6774 58.8544C3.6774 58.8544 5.50427 60.1145 7.49396 61.1154C10.1197 62.4328 14.9915 63.9432 21.3163 64.5009V64.4978Z" fill="#CC825C"/>
<path id="Vector_3" d="M43.854 23.6094H16.146C14.1481 23.6094 12.5284 25.229 12.5284 27.227V37.7904C12.5284 39.7884 14.1481 41.408 16.146 41.408H43.854C45.8519 41.408 47.4716 39.7884 47.4716 37.7904V27.227C47.4716 25.229 45.8519 23.6094 43.854 23.6094Z" fill="#FFAB7D"/>
<path id="Vector_4" d="M27.1225 11.6209C27.1225 10.8983 26.5367 10.3125 25.8141 10.3125C25.0915 10.3125 24.5058 10.8983 24.5058 11.6209V22.3019C24.5058 23.0245 25.0915 23.6103 25.8141 23.6103C26.5367 23.6103 27.1225 23.0245 27.1225 22.3019V11.6209Z" fill="#FF6712"/>
<path id="Vector_5" d="M23.5017 0.462891C23.8966 1.9853 23.8363 3.1761 23.6976 3.9991C23.378 5.88328 22.5038 6.72739 22.9651 7.84885C23.372 8.83465 24.4724 9.19641 24.7347 9.27178C25.7054 9.55516 26.9957 9.3803 27.6197 8.5784C28.4367 7.52929 27.7403 5.89836 27.273 4.80704C26.3566 2.66059 24.7558 1.28288 23.4987 0.462891H23.5017Z" fill="#FFE000"/>
<path id="Vector_6" d="M36.2932 11.6209C36.2932 10.8983 35.7074 10.3125 34.9848 10.3125C34.2623 10.3125 33.6765 10.8983 33.6765 11.6209V22.3019C33.6765 23.0245 34.2623 23.6103 34.9848 23.6103C35.7074 23.6103 36.2932 23.0245 36.2932 22.3019V11.6209Z" fill="#FF6712"/>
<path id="Vector_7" d="M32.6724 0.462891C33.0673 1.9853 33.007 3.1761 32.8683 3.9991C32.5488 5.88328 31.6745 6.72739 32.1358 7.84885C32.5428 8.83465 33.6431 9.19641 33.9054 9.27178C34.8761 9.55516 36.1664 9.3803 36.7904 8.5784C37.6074 7.52929 36.911 5.89836 36.4437 4.80704C35.5273 2.66059 33.9265 1.28288 32.6694 0.462891H32.6724Z" fill="#FFE000"/>
<path id="Vector_8" d="M33.0947 41.4471H16.1492C15.8537 41.441 14.5876 41.3777 13.5957 40.3859C12.8903 39.6775 12.6762 38.8514 12.628 38.6585C12.5647 38.3932 12.5315 38.1159 12.5315 37.8325V33.5215C13.3606 34.251 14.3343 35.0288 15.4558 35.8036C15.4558 35.8036 17.2827 37.0637 19.2724 38.0646C21.8982 39.382 26.7699 40.8924 33.0947 41.4501V41.4471Z" fill="#CC825C"/>
<path id="Vector_9" d="M24.0534 8.98584C24.4694 8.9768 25.5185 8.89842 26.3837 8.15379C26.8932 7.71666 27.1887 7.17704 27.3062 6.95998C27.5233 6.55601 27.6439 6.18823 27.7162 5.91992C27.7645 6.01338 28.4277 7.35792 27.7223 8.43416C27.4057 8.91651 26.9595 9.12452 26.7696 9.21195C25.5306 9.77268 24.2524 9.09437 24.0534 8.98584Z" fill="#FFA522"/>
<path id="Vector_10" d="M33.1758 8.98584C33.5919 8.9768 34.641 8.89842 35.5062 8.15379C36.0157 7.71666 36.3111 7.17704 36.4287 6.95998C36.6457 6.55601 36.7663 6.18823 36.8387 5.91992C36.8869 6.01338 37.5501 7.35792 36.8447 8.43416C36.5282 8.91651 36.082 9.12452 35.8921 9.21195C34.653 9.77268 33.3748 9.09437 33.1758 8.98584Z" fill="#FFA522"/>
<path id="Vector_11" d="M47.4747 32.1209C46.6637 31.6566 45.4338 31.0507 43.8571 30.6316C41.581 30.0287 39.7239 30.1221 36.3656 30.4779C28.6088 31.2979 29.0279 31.8043 26.6674 31.6054C22.9473 31.2918 22.3504 30.0739 19.1246 30.1674C16.321 30.2518 14.0479 31.2526 12.5315 32.1179V27.3155C12.5315 25.2776 14.1986 23.6074 16.2396 23.6074H43.7696C45.8076 23.6074 47.4777 25.2745 47.4777 27.3155V32.1179L47.4747 32.1209Z" fill="#FF7FD2" stroke="white" stroke-miterlimit="10" stroke-linecap="round"/>
<path id="Vector_12" d="M59.2499 51.4139C57.8028 51.6189 55.6262 51.842 52.9884 51.7727C47.0073 51.6159 45.2829 50.1236 40.4172 49.5659C33.4895 48.77 33.3267 51.3747 25.793 50.7989C20.1616 50.3678 19.2511 48.8394 14.3493 48.5409C8.60028 48.1942 3.82801 49.9337 0.750027 51.4139V45.0258C0.750027 43.0361 2.37795 41.4082 4.36764 41.4082H55.6292C57.6189 41.4082 59.2469 43.0361 59.2469 45.0258V51.4139H59.2499Z" fill="#FF7FD2" stroke="white" stroke-miterlimit="10" stroke-linecap="round"/>
<path id="Vector_13" d="M15.9167 27.8641L16.6101 26.5527" stroke="#43F6FF" stroke-miterlimit="10" stroke-linecap="round"/>
<path id="Vector_14" d="M7.21975 46.1814L5.91136 44.5625" stroke="#43F6FF" stroke-miterlimit="10" stroke-linecap="round"/>
<path id="Vector_15" d="M28.0483 43.5645L29.6159 44.8366" stroke="#43F6FF" stroke-miterlimit="10" stroke-linecap="round"/>
<path id="Vector_16" d="M24.0534 47.2573L24.5056 46.0273" stroke="#43F6FF" stroke-miterlimit="10" stroke-linecap="round"/>
<path id="Vector_17" d="M46.088 45.0254L47.0075 46.9156" stroke="#43F6FF" stroke-miterlimit="10" stroke-linecap="round"/>
<path id="Vector_18" d="M51.2457 47.1028L53.0153 44.9473" stroke="#43F6FF" stroke-miterlimit="10" stroke-linecap="round"/>
<path id="Vector_19" d="M54.8635 47.7969L55.5569 49.5665" stroke="#43F6FF" stroke-miterlimit="10" stroke-linecap="round"/>
<path id="Vector_20" d="M28.8314 27.8633L31.0804 30.0158" stroke="#43F6FF" stroke-miterlimit="10" stroke-linecap="round"/>
<path id="Vector_21" d="M33.6765 25.3967L35.1718 25.3184" stroke="#43F6FF" stroke-miterlimit="10" stroke-linecap="round"/>
<path id="Vector_22" d="M39.8537 26.0898L41.4695 27.8625" stroke="#43F6FF" stroke-miterlimit="10" stroke-linecap="round"/>
<path id="Vector_23" d="M45.3194 28.9395H45.0119" stroke="#43F6FF" stroke-miterlimit="10" stroke-linecap="round"/>
<path id="Vector_24" d="M13.683 43.7168L15.0697 45.3719" stroke="white" stroke-miterlimit="10" stroke-linecap="round"/>
<path id="Vector_25" d="M34.0051 44.543L33.6765 46.6412" stroke="white" stroke-miterlimit="10" stroke-linecap="round"/>
<path id="Vector_26" d="M41.9337 43.332L43.1637 45.0263" stroke="white" stroke-miterlimit="10" stroke-linecap="round"/>
<path id="Vector_27" d="M22.3803 27.8626L19.5345 25.3574" stroke="white" stroke-miterlimit="10" stroke-linecap="round"/>
<path id="Vector_28" d="M33.6765 27.8633L33.8393 29.4008" stroke="white" stroke-miterlimit="10" stroke-linecap="round"/>
<path id="Vector_29" d="M36.7755 27.7509L37.5442 26.6113" stroke="white" stroke-miterlimit="10" stroke-linecap="round"/>
<path id="Vector_30" d="M43.7031 25.3574L44.1643 26.2437" stroke="white" stroke-miterlimit="10" stroke-linecap="round"/>
<path id="Vector_31" d="M21.3826 42.5625L20.9575 45.3722" stroke="#FF1515" stroke-miterlimit="10" stroke-linecap="round"/>
<path id="Vector_32" d="M26.845 25.8008L25.814 26.6117" stroke="#FF1515" stroke-miterlimit="10" stroke-linecap="round"/>
<path id="Vector_33" d="M38.3912 45.3719L36.293 43.0234" stroke="#FF1515" stroke-miterlimit="10" stroke-linecap="round"/>
<path id="Vector_34" d="M49.63 45.3716L50.7062 42.4082" stroke="#FF1515" stroke-miterlimit="10" stroke-linecap="round"/>
<path id="Vector_35" d="M55.5568 44.1992L56.4793 45.3719" stroke="#FF1515" stroke-miterlimit="10" stroke-linecap="round"/>
</g>
</svg>
