<svg width="60" height="62" viewBox="0 0 60 62" fill="none" xmlns="http://www.w3.org/2000/svg">
<g id="Group 137">
<path id="Vector" d="M30.0386 24.9128C37.28 24.9128 44.5231 24.9128 51.7644 24.9128C53.903 24.9128 55.1216 26.061 55.1233 28.0796C55.1249 30.7871 55.1149 33.4963 55.1333 36.2038C55.135 36.5637 55.0309 36.7762 54.712 36.9716C54.0742 37.3605 53.5588 37.8849 53.0989 38.4607C52.7833 38.8565 52.456 39.2489 52.0918 39.6037C51.0343 40.6301 49.6528 40.6404 48.6003 39.6071C48.0783 39.0947 47.6318 38.5121 47.1467 37.962C45.8777 36.5226 44.2998 35.9125 42.3459 36.3889C41.2397 36.6597 40.4643 37.388 39.7609 38.1951C39.3597 38.6543 38.9854 39.1376 38.5523 39.5677C37.4596 40.6524 36.058 40.6473 34.9753 39.554C34.5036 39.0776 34.0924 38.5446 33.6492 38.0408C31.504 35.6092 28.5816 35.5852 26.391 37.986C25.9378 38.4812 25.5333 39.0176 25.0666 39.4991C23.9336 40.6712 22.485 40.6678 21.3553 39.494C20.9172 39.0399 20.5294 38.5429 20.1148 38.0683C17.9344 35.5852 14.9817 35.575 12.7744 38.046C12.4085 38.4555 12.0711 38.8874 11.7018 39.2952C10.3975 40.7381 8.91032 40.7364 7.6111 39.3003C7.02528 38.6526 6.60228 37.8266 5.83013 37.388C4.95224 36.8893 4.85152 36.2227 4.86831 35.3625C4.91531 32.9531 4.88341 30.5438 4.88509 28.1344C4.88509 26.0593 6.08192 24.9111 8.24729 24.9111C15.5105 24.9111 22.7737 24.9111 30.0369 24.9111L30.0386 24.9128Z" stroke="#235B55" stroke-width="1.5" stroke-miterlimit="10"/>
<path id="Vector_2" d="M4.87848 40.2718C5.46602 40.9904 5.93773 41.6349 6.47491 42.2104C8.33321 44.1985 10.9687 44.1985 12.8287 42.2052C13.3978 41.5943 13.8829 40.8968 14.4134 40.2453C15.6606 38.7146 17.1614 38.7057 18.4221 40.2224C18.9727 40.8845 19.4679 41.6013 20.0521 42.2281C21.8869 44.1915 24.5241 44.1932 26.3606 42.2352C26.9313 41.626 27.4181 40.9304 27.9469 40.2771C29.216 38.7075 30.7134 38.6934 31.9976 40.2436C32.5331 40.8898 33.0165 41.589 33.5856 42.2016C35.4372 44.1968 38.0778 44.2038 39.9394 42.2193C40.4665 41.6578 40.9214 41.0187 41.4032 40.4113C42.7999 38.6492 44.2872 38.6475 45.7006 40.4095C46.1589 40.9816 46.5853 41.5854 47.0772 42.1222C49.011 44.2338 51.67 44.2303 53.6123 42.1169C54.1159 41.5695 54.5574 40.9586 55.0375 40.3636C55.1902 40.5508 55.1147 40.7538 55.1147 40.9357C55.1197 44.4139 55.108 47.8939 55.1315 51.3722C55.1348 51.8683 55.0173 51.9778 54.5523 51.9778C38.1818 51.9636 21.8113 51.9636 5.44252 51.9778C4.96745 51.9778 4.86504 51.8542 4.86672 51.3669C4.88854 47.7156 4.87848 44.0643 4.87848 40.2736V40.2718Z" stroke="#235B55" stroke-width="1.5" stroke-miterlimit="10"/>
<path id="Vector_3" d="M30.0665 54.5565C39.2108 54.5565 48.3552 54.5565 57.4996 54.5565C58.6952 54.5565 58.9963 54.863 58.9963 56.0857C58.9963 56.6666 59.0066 57.2474 58.9928 57.8283C58.9495 59.5834 57.6311 60.9549 55.9372 60.9889C54.8385 61.0104 53.738 60.9943 52.6376 60.9943C36.6137 60.9943 20.5899 60.9943 4.56604 60.9943C2.19733 60.9943 1 59.7465 1 57.2797C1 56.8548 1 56.4299 1 56.0068C1.00346 54.9025 1.32703 54.5583 2.37729 54.5565C4.77196 54.5547 7.16488 54.5565 9.55954 54.5565H30.0699H30.0665Z" stroke="#235B55" stroke-width="1.5" stroke-miterlimit="10"/>
<path id="Vector_4" d="M15.7658 22.323C14.4783 22.323 13.1926 22.3101 11.9051 22.331C11.4785 22.3375 11.3055 22.2778 11.3112 21.8553C11.3412 19.8282 11.3206 17.8011 11.3262 15.774C11.3281 14.95 11.7303 14.6049 12.6908 14.6032C14.7734 14.5984 16.8559 14.5984 18.9366 14.6032C19.9065 14.6049 20.32 14.9451 20.3219 15.7563C20.3294 17.8043 20.3144 19.8508 20.3332 21.8989C20.3369 22.2359 20.2354 22.3391 19.8351 22.3327C18.478 22.3117 17.121 22.3246 15.7639 22.3246L15.7658 22.323Z" stroke="#1F6F6A" stroke-width="1.5" stroke-miterlimit="10"/>
<path id="Vector_5" d="M29.967 22.3263C28.6335 22.3263 27.2981 22.3166 25.9646 22.3327C25.6129 22.3375 25.4869 22.2698 25.4888 21.9408C25.5076 19.8538 25.4907 17.7652 25.502 15.6766C25.5057 14.9718 25.9364 14.6089 26.7677 14.6057C28.9212 14.5976 31.0747 14.5976 33.2283 14.6057C34.0596 14.6089 34.494 14.9718 34.4978 15.675C34.5091 17.762 34.494 19.8506 34.511 21.9392C34.5129 22.265 34.3944 22.3375 34.0389 22.3327C32.681 22.3166 31.323 22.3263 29.9651 22.3263H29.967Z" stroke="#1F6F6A" stroke-width="1.5" stroke-miterlimit="10"/>
<path id="Vector_6" d="M44.1447 22.3263C42.8112 22.3263 41.4759 22.3166 40.1424 22.3327C39.7907 22.3375 39.6646 22.2714 39.6665 21.9409C39.6853 19.8543 39.6684 17.7661 39.6797 15.678C39.6834 14.9733 40.1142 14.6105 40.9455 14.6057C43.099 14.5976 45.2525 14.5976 47.406 14.6057C48.2373 14.6089 48.6718 14.9717 48.6755 15.6747C48.6868 17.7613 48.6718 19.8495 48.6887 21.9377C48.6906 22.2618 48.574 22.3359 48.2166 22.3311C46.8587 22.315 45.5008 22.3246 44.1428 22.3246L44.1447 22.3263Z" stroke="#1F6F6A" stroke-width="1.5" stroke-miterlimit="10"/>
<path id="Vector_7" d="M20.3314 7.88051C20.3314 10.2451 18.2082 12.1085 15.6118 12.019C13.0644 11.9328 11.0977 9.8972 11.3296 7.50162C11.4899 5.84831 12.1178 4.33105 13.268 3.02562C14.8142 1.2707 16.7959 1.27759 18.3685 3.01701C19.4885 4.257 20.3314 6.34602 20.3333 7.87878L20.3314 7.88051Z" stroke="#A3E6DE" stroke-width="1.5" stroke-miterlimit="10"/>
<path id="Vector_8" d="M34.5091 7.88311C34.5091 10.2464 32.3822 12.1101 29.7859 12.0188C27.2386 11.931 25.2739 9.89154 25.5077 7.49898C25.6698 5.8471 26.2977 4.32785 27.4479 3.02392C28.9959 1.27041 30.9756 1.2773 32.5482 3.02047C33.6663 4.26067 34.511 6.35008 34.511 7.88311H34.5091Z" stroke="#A3E6DE" stroke-width="1.5" stroke-miterlimit="10"/>
<path id="Vector_9" d="M48.6887 7.64133C48.6755 10.2448 46.5729 12.0907 44.0025 12.0201C41.4492 11.9495 39.4691 9.93489 39.6822 7.5363C39.8331 5.8368 40.4837 4.28021 41.6887 2.95608C43.1936 1.29962 45.1434 1.29446 46.6502 2.94919C47.9551 4.3818 48.5511 6.07097 48.6887 7.64133Z" stroke="#A3E6DE" stroke-width="1.5" stroke-miterlimit="10"/>
</g>
</svg>
