<svg width="58" height="63" viewBox="0 0 58 63" fill="none" xmlns="http://www.w3.org/2000/svg">
<g id="Group 137">
<path id="Vector" d="M9.35693 48.9667C10.7316 53.4328 14.5559 56.5408 18.8613 56.75C24.5669 57.0284 27.8896 52.0641 28.0574 51.8052C28.3416 52.2201 31.6147 56.844 37.1646 56.75C41.6275 56.6738 45.7051 53.5782 47.3331 48.9667C45.159 50.2698 43.3684 50.4028 42.2934 50.3443C39.9207 50.2148 37.9812 48.9879 36.3446 47.9508C33.7118 46.2842 33.1228 45.1087 31.5068 45.0803C30.0877 45.0573 28.9133 45.9367 28.1464 46.6778C27.412 45.9225 26.2326 44.9633 24.786 44.9757C23.1443 44.9917 22.5863 46.2469 19.7463 48.0394C18.007 49.1369 16.1633 50.2999 13.866 50.3407C11.9076 50.3762 10.3259 49.5854 9.35693 48.9667Z" fill="#235B55"/>
<path id="Vector_2" d="M39.473 29.9226C39.473 30.9296 39.1691 31.8752 39.1691 31.8752C38.9483 32.5609 38.6495 33.077 38.4204 33.4163C38.0336 33.8367 37.6467 34.2572 37.2598 34.6777L28.9901 43.6663L19.6296 33.4921C18.934 32.5014 18.5239 31.2634 18.5239 29.9244C18.5239 26.6672 20.9545 24.0234 23.9529 24.0234C26.2457 24.0234 28.2082 25.5736 29.0018 27.7607C29.7921 25.5736 31.7545 24.0234 34.0506 24.0234C37.0491 24.0234 39.4763 26.6654 39.4763 29.9208L39.473 29.9226Z" fill="#FFD0B8"/>
<path id="Vector_3" d="M3.54132 5.69043H54.4587C55.5848 5.69043 56.5 6.68081 56.5 7.89947V20.0952H1.5V7.89947C1.5 6.68081 2.41519 5.69043 3.54132 5.69043Z" fill="#235B55"/>
<path id="Vector_4" d="M54.4587 5.69043H3.54132C2.41393 5.69043 1.5 6.62612 1.5 7.78035V59.91C1.5 61.0643 2.41393 62 3.54132 62H54.4587C55.5861 62 56.5 61.0643 56.5 59.91V7.78035C56.5 6.62612 55.5861 5.69043 54.4587 5.69043Z" stroke="#235B55" stroke-width="1.5" stroke-miterlimit="10"/>
<g id="Group">
<path id="Vector_5" d="M8.67577 9.82284V1.70208C8.67577 0.697829 7.11475 0.696094 7.11475 1.70208V9.82284C7.11475 10.8271 8.67577 10.8288 8.67577 9.82284Z" fill="#84BCB9"/>
<path id="Vector_6" d="M19.9634 9.82284V1.70208C19.9634 0.697829 18.4023 0.696094 18.4023 1.70208V9.82284C18.4023 10.8271 19.9634 10.8288 19.9634 9.82284Z" fill="#84BCB9"/>
<path id="Vector_7" d="M30.2436 9.82284V1.70208C30.2436 0.697829 28.6826 0.696094 28.6826 1.70208V9.82284C28.6826 10.8271 30.2436 10.8288 30.2436 9.82284Z" fill="#84BCB9"/>
<path id="Vector_8" d="M40.5224 9.82284V1.70208C40.5224 0.697829 38.9614 0.696094 38.9614 1.70208V9.82284C38.9614 10.8271 40.5224 10.8288 40.5224 9.82284Z" fill="#84BCB9"/>
<path id="Vector_9" d="M50.8022 9.82284V1.70208C50.8022 0.697829 49.2412 0.696094 49.2412 1.70208V9.82284C49.2412 10.8271 50.8022 10.8288 50.8022 9.82284Z" fill="#84BCB9"/>
</g>
</g>
</svg>
