<svg width="70" height="65" viewBox="0 0 70 65" fill="none" xmlns="http://www.w3.org/2000/svg">
<path d="M57.415 20.1074H64.0071C66.6143 20.1074 68.75 22.2406 68.75 24.8504V59.2567C68.75 61.8639 66.6169 63.9997 64.0071 63.9997H5.99292C3.38574 63.9997 1.25 61.8665 1.25 59.2567V24.8504C1.25 22.2432 3.38313 20.1074 5.99292 20.1074H13.9629" stroke="#235B55" stroke-width="2" stroke-miterlimit="10"/>
<path d="M57.415 28.8482V1.97949H13.9629C13.9889 10.8428 14.0149 19.7036 14.041 28.567C21.3702 33.4271 28.6969 38.2872 36.0262 43.1447C43.1549 38.3784 50.2863 33.6146 57.415 28.8482Z" stroke="#235B55" stroke-width="2" stroke-miterlimit="10"/>
<path d="M67.7448 21.9438C57.1728 29.01 46.5983 36.0762 36.0264 43.1424C25.0038 35.8314 13.9812 28.5229 2.95605 21.2119" stroke="#235B55" stroke-width="2" stroke-miterlimit="10"/>
<path d="M30.5364 10.8334C30.4164 10.8334 30.3081 10.7901 30.2114 10.7034C30.1181 10.6134 30.0714 10.4901 30.0714 10.3334C30.0714 10.2801 30.0798 10.2134 30.0964 10.1334C30.1131 10.0534 30.1464 9.98177 30.1964 9.91844C30.2498 9.8551 30.3281 9.82344 30.4314 9.82344C30.3881 9.90344 30.3531 9.99177 30.3264 10.0884C30.2998 10.1818 30.2864 10.2601 30.2864 10.3234C30.2864 10.3768 30.2948 10.4368 30.3114 10.5034C30.3281 10.5701 30.3564 10.6268 30.3964 10.6734C30.4398 10.7201 30.4981 10.7434 30.5714 10.7434C30.6981 10.7434 30.8164 10.6901 30.9264 10.5834C31.0364 10.4768 31.1414 10.3334 31.2414 10.1534C31.3448 9.97344 31.4464 9.77177 31.5464 9.54844C31.5831 9.47177 31.6231 9.37677 31.6664 9.26344C31.7098 9.1501 31.7548 9.0301 31.8014 8.90344C31.8481 8.77344 31.8931 8.64677 31.9364 8.52344C31.9798 8.4001 32.0164 8.29177 32.0464 8.19844C32.0764 8.10177 32.0964 8.03177 32.1064 7.98844C32.1531 8.03844 32.1831 8.0951 32.1964 8.15844C32.2131 8.22177 32.2214 8.2901 32.2214 8.36344C32.2214 8.48677 32.1881 8.63844 32.1214 8.81844C32.0581 8.99844 31.9681 9.2351 31.8514 9.52844C31.7981 9.66844 31.7331 9.8151 31.6564 9.96844C31.5798 10.1218 31.4881 10.2634 31.3814 10.3934C31.2781 10.5234 31.1564 10.6301 31.0164 10.7134C30.8798 10.7934 30.7198 10.8334 30.5364 10.8334ZM32.2537 10.8084C32.1303 10.8084 32.037 10.7684 31.9737 10.6884C31.9137 10.6084 31.8837 10.5068 31.8837 10.3834C31.8837 10.2434 31.9203 10.0901 31.9937 9.92344C32.0603 9.77344 32.1453 9.63677 32.2487 9.51344C32.3553 9.3901 32.4703 9.29177 32.5937 9.21844C32.717 9.14177 32.8353 9.10344 32.9487 9.10344C33.0853 9.10344 33.1853 9.1451 33.2487 9.22844C33.312 9.31177 33.3437 9.41677 33.3437 9.54344C33.3437 9.6801 33.3087 9.82677 33.2387 9.98344C33.202 10.0634 33.1487 10.1501 33.0787 10.2434C33.0087 10.3368 32.9287 10.4268 32.8387 10.5134C32.7487 10.6001 32.652 10.6718 32.5487 10.7284C32.4487 10.7818 32.3503 10.8084 32.2537 10.8084ZM32.3487 10.7084C32.4187 10.7084 32.4887 10.6851 32.5587 10.6384C32.6287 10.5884 32.6953 10.5284 32.7587 10.4584C32.822 10.3884 32.877 10.3184 32.9237 10.2484C32.9737 10.1751 33.0103 10.1134 33.0337 10.0634C33.0903 9.95677 33.132 9.8551 33.1587 9.75844C33.1853 9.65844 33.1987 9.57177 33.1987 9.49844C33.1987 9.33844 33.1387 9.25844 33.0187 9.25844C32.9453 9.25844 32.867 9.28844 32.7837 9.34844C32.7037 9.4051 32.6253 9.48177 32.5487 9.57844C32.472 9.6751 32.4053 9.78344 32.3487 9.90344C32.2287 10.1434 32.1687 10.3384 32.1687 10.4884C32.1687 10.6084 32.207 10.6784 32.2837 10.6984C32.2937 10.7018 32.3037 10.7051 32.3137 10.7084C32.3237 10.7084 32.3353 10.7084 32.3487 10.7084ZM33.0127 12.4234C32.9194 12.4234 32.8477 12.3984 32.7977 12.3484C32.7444 12.2984 32.7177 12.2268 32.7177 12.1334C32.7177 12.0001 32.756 11.8734 32.8327 11.7534C32.9094 11.6334 33.0077 11.5218 33.1277 11.4184C33.2444 11.3184 33.366 11.2268 33.4927 11.1434C33.6194 11.0601 33.7344 10.9884 33.8377 10.9284C33.941 10.8684 34.0144 10.8218 34.0577 10.7884C34.141 10.6384 34.2194 10.4851 34.2927 10.3284C34.366 10.1684 34.431 10.0101 34.4877 9.85344C34.401 10.0068 34.306 10.1534 34.2027 10.2934C34.1027 10.4334 34.001 10.5484 33.8977 10.6384C33.7977 10.7284 33.701 10.7734 33.6077 10.7734C33.511 10.7734 33.446 10.7418 33.4127 10.6784C33.3794 10.6118 33.3627 10.5401 33.3627 10.4634C33.3627 10.4034 33.3677 10.3451 33.3777 10.2884C33.391 10.2318 33.4027 10.1901 33.4127 10.1634C33.4427 10.0768 33.481 9.98177 33.5277 9.87844C33.5744 9.77177 33.621 9.66844 33.6677 9.56844C33.7177 9.4651 33.761 9.3751 33.7977 9.29844C33.8244 9.24177 33.8744 9.19344 33.9477 9.15344C34.021 9.1101 34.081 9.08844 34.1277 9.08844C34.1777 9.08844 34.2027 9.10677 34.2027 9.14344C34.2027 9.1701 34.1877 9.20844 34.1577 9.25844C34.131 9.3051 34.091 9.37844 34.0377 9.47844C33.9844 9.57844 33.926 9.68844 33.8627 9.80844C33.8027 9.92844 33.7477 10.0434 33.6977 10.1534C33.6377 10.2834 33.6077 10.4001 33.6077 10.5034C33.6077 10.5468 33.6144 10.5818 33.6277 10.6084C33.641 10.6351 33.6627 10.6484 33.6927 10.6484C33.7194 10.6484 33.7544 10.6334 33.7977 10.6034C33.841 10.5734 33.891 10.5234 33.9477 10.4534C33.9777 10.4201 34.0227 10.3634 34.0827 10.2834C34.146 10.2034 34.2144 10.1101 34.2877 10.0034C34.361 9.89344 34.431 9.77844 34.4977 9.65844C34.5644 9.5351 34.6177 9.41677 34.6577 9.30344L34.6877 9.19344C34.7144 9.1701 34.741 9.15844 34.7677 9.15844C34.8044 9.15844 34.836 9.1751 34.8627 9.20844C34.8894 9.24177 34.9044 9.26177 34.9077 9.26844C34.8544 9.46177 34.7877 9.66844 34.7077 9.88844C34.6277 10.1084 34.5244 10.3551 34.3977 10.6284C34.5244 10.5484 34.631 10.4718 34.7177 10.3984C34.8044 10.3218 34.8677 10.2618 34.9077 10.2184C34.941 10.1818 34.9727 10.1451 35.0027 10.1084C35.036 10.0718 35.066 10.0351 35.0927 9.99844C35.1027 9.98844 35.111 9.98344 35.1177 9.98344C35.1377 9.98344 35.1477 9.99844 35.1477 10.0284C35.1477 10.0484 35.141 10.0651 35.1277 10.0784C35.091 10.1218 35.0544 10.1668 35.0177 10.2134C34.9844 10.2568 34.9477 10.3018 34.9077 10.3484C34.841 10.4218 34.751 10.5018 34.6377 10.5884C34.5277 10.6718 34.4194 10.7434 34.3127 10.8034C34.2294 11.0001 34.141 11.1934 34.0477 11.3834C33.9577 11.5768 33.861 11.7518 33.7577 11.9084C33.6544 12.0651 33.541 12.1901 33.4177 12.2834C33.2944 12.3768 33.1594 12.4234 33.0127 12.4234ZM32.9927 12.3184C33.0794 12.3184 33.166 12.2834 33.2527 12.2134C33.336 12.1434 33.416 12.0518 33.4927 11.9384C33.5694 11.8284 33.641 11.7101 33.7077 11.5834C33.7744 11.4568 33.8327 11.3351 33.8827 11.2184C33.936 11.1018 33.9794 11.0051 34.0127 10.9284C33.956 10.9651 33.8794 11.0168 33.7827 11.0834C33.686 11.1534 33.5827 11.2318 33.4727 11.3184C33.3627 11.4051 33.2594 11.4968 33.1627 11.5934C33.0627 11.6901 32.9827 11.7851 32.9227 11.8784C32.8594 11.9751 32.8277 12.0634 32.8277 12.1434C32.8277 12.1834 32.8394 12.2218 32.8627 12.2584C32.886 12.2984 32.9294 12.3184 32.9927 12.3184ZM35.4044 10.8484C35.281 10.8484 35.1827 10.8134 35.1094 10.7434C35.036 10.6701 34.9994 10.5684 34.9994 10.4384C34.9994 10.3384 35.0177 10.2334 35.0544 10.1234C35.0944 10.0134 35.1327 9.92677 35.1694 9.86344C35.246 9.72344 35.3377 9.5951 35.4444 9.47844C35.5544 9.36177 35.666 9.26844 35.7794 9.19844C35.896 9.1251 36.0027 9.08844 36.0994 9.08844C36.1894 9.08844 36.266 9.11344 36.3294 9.16344C36.396 9.21344 36.4294 9.2801 36.4294 9.36344C36.4294 9.39677 36.421 9.4351 36.4044 9.47844C36.3877 9.52177 36.361 9.56677 36.3244 9.61344C36.191 9.78344 36.0427 9.91677 35.8794 10.0134C35.7194 10.1068 35.536 10.1768 35.3294 10.2234C35.316 10.2668 35.3044 10.3101 35.2944 10.3534C35.2844 10.3934 35.276 10.4318 35.2694 10.4684C35.266 10.4851 35.2627 10.5018 35.2594 10.5184C35.2594 10.5318 35.2594 10.5468 35.2594 10.5634C35.2594 10.6301 35.2744 10.6784 35.3044 10.7084C35.3377 10.7351 35.3777 10.7484 35.4244 10.7484C35.4977 10.7484 35.576 10.7301 35.6594 10.6934C35.7427 10.6534 35.821 10.6084 35.8944 10.5584C35.9677 10.5084 36.0227 10.4684 36.0594 10.4384C36.096 10.4051 36.131 10.3718 36.1644 10.3384C36.201 10.3018 36.241 10.2618 36.2844 10.2184C36.3177 10.1818 36.3494 10.1468 36.3794 10.1134C36.4094 10.0768 36.4377 10.0401 36.4644 10.0034C36.4744 9.99344 36.4827 9.98844 36.4894 9.98844C36.5094 9.98844 36.5194 10.0034 36.5194 10.0334C36.5194 10.0501 36.5127 10.0651 36.4994 10.0784C36.4394 10.1518 36.3794 10.2251 36.3194 10.2984C36.2594 10.3684 36.1977 10.4368 36.1344 10.5034C36.061 10.5801 35.9594 10.6568 35.8294 10.7334C35.7027 10.8101 35.561 10.8484 35.4044 10.8484ZM35.3594 10.1584C35.446 10.1218 35.546 10.0684 35.6594 9.99844C35.776 9.92844 35.8877 9.8451 35.9944 9.74844C36.1044 9.64844 36.1944 9.54177 36.2644 9.42844C36.2877 9.39177 36.2994 9.35844 36.2994 9.32844C36.2994 9.28177 36.2727 9.25844 36.2194 9.25844C36.1827 9.25844 36.1377 9.27177 36.0844 9.29844C35.9177 9.38844 35.7744 9.5101 35.6544 9.66344C35.5344 9.81677 35.436 9.98177 35.3594 10.1584ZM37.3467 10.7884C37.2333 10.7884 37.1767 10.7184 37.1767 10.5784C37.1767 10.5118 37.1883 10.4351 37.2117 10.3484C37.235 10.2584 37.2667 10.1618 37.3067 10.0584C37.2367 10.1684 37.1583 10.2784 37.0717 10.3884C36.9883 10.4984 36.9017 10.5901 36.8117 10.6634C36.725 10.7334 36.64 10.7684 36.5567 10.7684C36.4633 10.7684 36.4 10.7384 36.3667 10.6784C36.3367 10.6151 36.3217 10.5468 36.3217 10.4734C36.3217 10.4101 36.3283 10.3501 36.3417 10.2934C36.355 10.2334 36.3683 10.1901 36.3817 10.1634C36.4317 10.0368 36.4933 9.89677 36.5667 9.74344C36.6433 9.5901 36.7117 9.45677 36.7717 9.34344C36.805 9.28677 36.8583 9.23844 36.9317 9.19844C37.0083 9.15844 37.07 9.13844 37.1167 9.13844C37.1667 9.13844 37.1917 9.1551 37.1917 9.18844C37.1917 9.2151 37.175 9.2551 37.1417 9.30844C37.1117 9.35177 37.07 9.4201 37.0167 9.51344C36.9633 9.60344 36.905 9.7051 36.8417 9.81844C36.7817 9.93177 36.7233 10.0434 36.6667 10.1534C36.5933 10.2934 36.5567 10.4151 36.5567 10.5184C36.5567 10.6018 36.5817 10.6434 36.6317 10.6434C36.6583 10.6434 36.6933 10.6284 36.7367 10.5984C36.78 10.5684 36.8317 10.5201 36.8917 10.4534C36.9183 10.4268 36.9583 10.3734 37.0117 10.2934C37.0683 10.2134 37.1317 10.1234 37.2017 10.0234C37.2717 9.9201 37.34 9.8201 37.4067 9.72344C37.4733 9.62344 37.5283 9.54177 37.5717 9.47844C37.6517 9.3251 37.7367 9.22177 37.8267 9.16844C37.9167 9.1151 38.0233 9.08844 38.1467 9.08844C38.1133 9.1051 38.0733 9.14844 38.0267 9.21844C37.98 9.28844 37.9317 9.3601 37.8817 9.43344C37.8483 9.48344 37.8117 9.54844 37.7717 9.62844C37.7317 9.70844 37.6917 9.79344 37.6517 9.88344C37.6117 9.9701 37.5767 10.0518 37.5467 10.1284C37.52 10.2051 37.5017 10.2651 37.4917 10.3084C37.475 10.3818 37.4667 10.4401 37.4667 10.4834C37.4667 10.5634 37.4867 10.6034 37.5267 10.6034C37.54 10.6034 37.5567 10.5984 37.5767 10.5884C37.65 10.5518 37.7233 10.4984 37.7967 10.4284C37.87 10.3584 37.94 10.2868 38.0067 10.2134C38.04 10.1768 38.0717 10.1418 38.1017 10.1084C38.1317 10.0751 38.16 10.0401 38.1867 10.0034C38.1967 9.99344 38.205 9.98844 38.2117 9.98844C38.2317 9.98844 38.2417 10.0018 38.2417 10.0284C38.2417 10.0484 38.235 10.0651 38.2217 10.0784C38.1517 10.1651 38.0783 10.2534 38.0017 10.3434C37.9283 10.4268 37.8517 10.5084 37.7717 10.5884C37.705 10.6518 37.6317 10.7018 37.5517 10.7384C37.4717 10.7718 37.4033 10.7884 37.3467 10.7884ZM38.6451 10.8884C38.5184 10.8884 38.3851 10.8368 38.2451 10.7334C38.1851 10.6901 38.1334 10.6301 38.0901 10.5534C38.0667 10.5134 38.0551 10.4701 38.0551 10.4234C38.0551 10.3701 38.0734 10.3434 38.1101 10.3434C38.1267 10.3434 38.1467 10.3584 38.1701 10.3884C38.1967 10.4151 38.2201 10.4501 38.2401 10.4934C38.2701 10.5601 38.3017 10.6184 38.3351 10.6684C38.3684 10.7151 38.4217 10.7384 38.4951 10.7384C38.5617 10.7384 38.6167 10.7001 38.6601 10.6234C38.7034 10.5468 38.7367 10.4484 38.7601 10.3284C38.7867 10.2084 38.8051 10.0818 38.8151 9.94844C38.8284 9.8151 38.8367 9.69344 38.8401 9.58344C38.8434 9.4701 38.8467 9.38344 38.8501 9.32344C38.6934 9.51344 38.5451 9.69344 38.4051 9.86344C38.2684 10.0301 38.1384 10.1868 38.0151 10.3334C38.0017 10.3501 37.9901 10.3584 37.9801 10.3584C37.9701 10.3584 37.9651 10.3484 37.9651 10.3284C37.9651 10.2918 37.9734 10.2618 37.9901 10.2384C38.0567 10.1584 38.1301 10.0701 38.2101 9.97344C38.2901 9.87344 38.3701 9.77344 38.4501 9.67344C38.5334 9.57344 38.6067 9.4851 38.6701 9.40844C38.7367 9.32844 38.7851 9.26844 38.8151 9.22844C38.8151 9.12844 38.8384 9.0501 38.8851 8.99344C38.9317 8.93344 38.9884 8.8901 39.0551 8.86344C39.1217 8.83677 39.1851 8.82344 39.2451 8.82344C39.3017 8.82344 39.3434 8.8301 39.3701 8.84344C39.3934 8.85344 39.4051 8.8651 39.4051 8.87844C39.4051 8.88844 39.3884 8.89844 39.3551 8.90844C39.2751 8.92844 39.2184 8.97177 39.1851 9.03844C39.1517 9.10177 39.1301 9.1801 39.1201 9.27344C39.1134 9.36344 39.1101 9.4601 39.1101 9.56344C39.1101 9.71677 39.1034 9.87844 39.0901 10.0484C39.0767 10.2184 39.0551 10.3618 39.0251 10.4784C39.0184 10.5018 39.0084 10.5268 38.9951 10.5534C38.9851 10.5801 38.9751 10.6068 38.9651 10.6334C39.0584 10.5668 39.1501 10.4951 39.2401 10.4184C39.3301 10.3384 39.4001 10.2718 39.4501 10.2184C39.4867 10.1818 39.5184 10.1468 39.5451 10.1134C39.5751 10.0768 39.6051 10.0401 39.6351 10.0034C39.6417 9.99344 39.6501 9.98844 39.6601 9.98844C39.6801 9.98844 39.6901 10.0018 39.6901 10.0284C39.6901 10.0451 39.6817 10.0618 39.6651 10.0784C39.5951 10.1618 39.5234 10.2501 39.4501 10.3434C39.3801 10.4368 39.3017 10.5184 39.2151 10.5884C39.1784 10.6184 39.1317 10.6568 39.0751 10.7034C39.0184 10.7501 38.9617 10.7884 38.9051 10.8184C38.8117 10.8651 38.7251 10.8884 38.6451 10.8884ZM39.9454 10.8484C39.8221 10.8484 39.7237 10.8134 39.6504 10.7434C39.5771 10.6701 39.5404 10.5684 39.5404 10.4384C39.5404 10.3384 39.5587 10.2334 39.5954 10.1234C39.6354 10.0134 39.6737 9.92677 39.7104 9.86344C39.7871 9.72344 39.8787 9.5951 39.9854 9.47844C40.0954 9.36177 40.2071 9.26844 40.3204 9.19844C40.4371 9.1251 40.5437 9.08844 40.6404 9.08844C40.7304 9.08844 40.8071 9.11344 40.8704 9.16344C40.9371 9.21344 40.9704 9.2801 40.9704 9.36344C40.9704 9.39677 40.9621 9.4351 40.9454 9.47844C40.9287 9.52177 40.9021 9.56677 40.8654 9.61344C40.7321 9.78344 40.5837 9.91677 40.4204 10.0134C40.2604 10.1068 40.0771 10.1768 39.8704 10.2234C39.8571 10.2668 39.8454 10.3101 39.8354 10.3534C39.8254 10.3934 39.8171 10.4318 39.8104 10.4684C39.8071 10.4851 39.8037 10.5018 39.8004 10.5184C39.8004 10.5318 39.8004 10.5468 39.8004 10.5634C39.8004 10.6301 39.8154 10.6784 39.8454 10.7084C39.8787 10.7351 39.9187 10.7484 39.9654 10.7484C40.0387 10.7484 40.1171 10.7301 40.2004 10.6934C40.2837 10.6534 40.3621 10.6084 40.4354 10.5584C40.5087 10.5084 40.5637 10.4684 40.6004 10.4384C40.6371 10.4051 40.6721 10.3718 40.7054 10.3384C40.7421 10.3018 40.7821 10.2618 40.8254 10.2184C40.8587 10.1818 40.8904 10.1468 40.9204 10.1134C40.9504 10.0768 40.9787 10.0401 41.0054 10.0034C41.0154 9.99344 41.0237 9.98844 41.0304 9.98844C41.0504 9.98844 41.0604 10.0034 41.0604 10.0334C41.0604 10.0501 41.0537 10.0651 41.0404 10.0784C40.9804 10.1518 40.9204 10.2251 40.8604 10.2984C40.8004 10.3684 40.7387 10.4368 40.6754 10.5034C40.6021 10.5801 40.5004 10.6568 40.3704 10.7334C40.2437 10.8101 40.1021 10.8484 39.9454 10.8484ZM39.9004 10.1584C39.9871 10.1218 40.0871 10.0684 40.2004 9.99844C40.3171 9.92844 40.4287 9.8451 40.5354 9.74844C40.6454 9.64844 40.7354 9.54177 40.8054 9.42844C40.8287 9.39177 40.8404 9.35844 40.8404 9.32844C40.8404 9.28177 40.8137 9.25844 40.7604 9.25844C40.7237 9.25844 40.6787 9.27177 40.6254 9.29844C40.4587 9.38844 40.3154 9.5101 40.1954 9.66344C40.0754 9.81677 39.9771 9.98177 39.9004 10.1584Z" fill="#235B55"/>
<path d="M30.0215 20.3846C29.9282 20.3846 29.8632 20.3513 29.8265 20.2846C29.7899 20.218 29.7715 20.1313 29.7715 20.0246C29.7715 19.958 29.7782 19.8846 29.7915 19.8046C29.8015 19.7246 29.8165 19.643 29.8365 19.5596C29.9265 19.1863 30.0549 18.8196 30.2215 18.4596C30.3915 18.0996 30.5632 17.7396 30.7365 17.3796H30.6415C30.6049 17.3796 30.5865 17.3696 30.5865 17.3496C30.5865 17.3363 30.5949 17.3246 30.6115 17.3146C30.6315 17.3013 30.6582 17.2946 30.6915 17.2946H30.7665C30.8532 17.108 30.9382 16.9363 31.0215 16.7796C31.1049 16.6196 31.1982 16.448 31.3015 16.2646C31.3782 16.128 31.4665 16.0196 31.5665 15.9396C31.6665 15.8596 31.7649 15.8196 31.8615 15.8196C31.8715 15.8196 31.8815 15.8196 31.8915 15.8196C31.9049 15.8196 31.9165 15.8213 31.9265 15.8246C31.8165 15.9813 31.7165 16.1313 31.6265 16.2746C31.5399 16.4146 31.4532 16.5663 31.3665 16.7296C31.2799 16.8896 31.1799 17.078 31.0665 17.2946H31.6765C31.6932 17.2946 31.7015 17.303 31.7015 17.3196C31.7015 17.333 31.6949 17.3463 31.6815 17.3596C31.6715 17.373 31.6582 17.3796 31.6415 17.3796H31.0215L30.9315 17.5646C30.9549 17.6313 30.9715 17.7113 30.9815 17.8046C30.9915 17.8946 30.9965 17.988 30.9965 18.0846C30.9965 18.238 30.9865 18.393 30.9665 18.5496C30.9499 18.7063 30.9315 18.8363 30.9115 18.9396C30.8615 19.1963 30.7949 19.4346 30.7115 19.6546C30.6315 19.8746 30.5349 20.0513 30.4215 20.1846C30.3082 20.318 30.1749 20.3846 30.0215 20.3846ZM30.0715 20.2996C30.1349 20.2996 30.1965 20.263 30.2565 20.1896C30.3199 20.1196 30.3782 20.033 30.4315 19.9296C30.4882 19.8263 30.5365 19.7246 30.5765 19.6246C30.6165 19.5246 30.6465 19.448 30.6665 19.3946C30.7032 19.2946 30.7382 19.1696 30.7715 19.0196C30.8082 18.8696 30.8365 18.7113 30.8565 18.5446C30.8799 18.3746 30.8915 18.213 30.8915 18.0596C30.8915 17.9296 30.8815 17.8146 30.8615 17.7146C30.8015 17.8446 30.7315 17.9963 30.6515 18.1696C30.5749 18.3396 30.4965 18.518 30.4165 18.7046C30.3365 18.8946 30.2632 19.0796 30.1965 19.2596C30.1299 19.443 30.0765 19.6096 30.0365 19.7596C29.9932 19.913 29.9715 20.0363 29.9715 20.1296C29.9715 20.2396 30.0049 20.2963 30.0715 20.2996ZM31.8472 18.7146C31.7239 18.7146 31.6256 18.6796 31.5522 18.6096C31.4789 18.5363 31.4422 18.4346 31.4422 18.3046C31.4422 18.2046 31.4606 18.0996 31.4972 17.9896C31.5372 17.8796 31.5756 17.793 31.6122 17.7296C31.6889 17.5896 31.7806 17.4613 31.8872 17.3446C31.9972 17.228 32.1089 17.1346 32.2222 17.0646C32.3389 16.9913 32.4456 16.9546 32.5422 16.9546C32.6322 16.9546 32.7089 16.9796 32.7722 17.0296C32.8389 17.0796 32.8722 17.1463 32.8722 17.2296C32.8722 17.263 32.8639 17.3013 32.8472 17.3446C32.8306 17.388 32.8039 17.433 32.7672 17.4796C32.6339 17.6496 32.4856 17.783 32.3222 17.8796C32.1622 17.973 31.9789 18.043 31.7722 18.0896C31.7589 18.133 31.7472 18.1763 31.7372 18.2196C31.7272 18.2596 31.7189 18.298 31.7122 18.3346C31.7089 18.3513 31.7056 18.368 31.7022 18.3846C31.7022 18.398 31.7022 18.413 31.7022 18.4296C31.7022 18.4963 31.7172 18.5446 31.7472 18.5746C31.7806 18.6013 31.8206 18.6146 31.8672 18.6146C31.9406 18.6146 32.0189 18.5963 32.1022 18.5596C32.1856 18.5196 32.2639 18.4746 32.3372 18.4246C32.4106 18.3746 32.4656 18.3346 32.5022 18.3046C32.5389 18.2713 32.5739 18.238 32.6072 18.2046C32.6439 18.168 32.6839 18.128 32.7272 18.0846C32.7606 18.048 32.7922 18.013 32.8222 17.9796C32.8522 17.943 32.8806 17.9063 32.9072 17.8696C32.9172 17.8596 32.9256 17.8546 32.9322 17.8546C32.9522 17.8546 32.9622 17.8696 32.9622 17.8996C32.9622 17.9163 32.9556 17.9313 32.9422 17.9446C32.8822 18.018 32.8222 18.0913 32.7622 18.1646C32.7022 18.2346 32.6406 18.303 32.5772 18.3696C32.5039 18.4463 32.4022 18.523 32.2722 18.5996C32.1456 18.6763 32.0039 18.7146 31.8472 18.7146ZM31.8022 18.0246C31.8889 17.988 31.9889 17.9346 32.1022 17.8646C32.2189 17.7946 32.3306 17.7113 32.4372 17.6146C32.5472 17.5146 32.6372 17.408 32.7072 17.2946C32.7306 17.258 32.7422 17.2246 32.7422 17.1946C32.7422 17.148 32.7156 17.1246 32.6622 17.1246C32.6256 17.1246 32.5806 17.138 32.5272 17.1646C32.3606 17.2546 32.2172 17.3763 32.0972 17.5296C31.9772 17.683 31.8789 17.848 31.8022 18.0246ZM32.0772 16.7096C32.0606 16.7096 32.0522 16.7013 32.0522 16.6846C32.0522 16.668 32.0606 16.653 32.0772 16.6396C32.1272 16.5996 32.1806 16.5563 32.2372 16.5096C32.2939 16.4596 32.3472 16.413 32.3972 16.3696C32.4506 16.323 32.4906 16.2896 32.5172 16.2696C32.5706 16.223 32.6206 16.1996 32.6672 16.1996C32.6872 16.1996 32.7089 16.208 32.7322 16.2246C32.7556 16.238 32.7739 16.253 32.7872 16.2696C32.8139 16.303 32.8589 16.3596 32.9222 16.4396C32.9889 16.5163 33.0489 16.583 33.1022 16.6396C33.1089 16.6463 33.1122 16.6563 33.1122 16.6696C33.1122 16.683 33.1072 16.6946 33.0972 16.7046C33.0872 16.7113 33.0789 16.713 33.0722 16.7096C33.0656 16.7063 33.0456 16.6946 33.0122 16.6746C32.9789 16.6546 32.9439 16.6313 32.9072 16.6046C32.8706 16.578 32.8439 16.558 32.8272 16.5446C32.8072 16.528 32.7789 16.5063 32.7422 16.4796C32.7056 16.4496 32.6689 16.4196 32.6322 16.3896C32.5889 16.4196 32.5422 16.4496 32.4922 16.4796C32.4456 16.5063 32.4089 16.528 32.3822 16.5446C32.3589 16.558 32.3239 16.578 32.2772 16.6046C32.2339 16.6313 32.1922 16.6546 32.1522 16.6746C32.1156 16.6946 32.0922 16.7063 32.0822 16.7096H32.0772ZM33.0396 18.6546C32.9662 18.6546 32.9046 18.633 32.8546 18.5896C32.8046 18.5463 32.7796 18.473 32.7796 18.3696C32.7796 18.343 32.7812 18.3163 32.7846 18.2896C32.7879 18.263 32.7929 18.2346 32.7996 18.2046C32.8262 18.0713 32.8812 17.9096 32.9646 17.7196C33.0479 17.5263 33.1546 17.308 33.2846 17.0646H33.0946C33.0579 17.0646 33.0396 17.0546 33.0396 17.0346C33.0396 17.0246 33.0479 17.0146 33.0646 17.0046C33.0846 16.9913 33.1112 16.9846 33.1446 16.9846H33.3246C33.3812 16.888 33.4262 16.813 33.4596 16.7596C33.4962 16.703 33.5262 16.6596 33.5496 16.6296C33.6362 16.5196 33.7146 16.443 33.7846 16.3996C33.8579 16.353 33.9212 16.3263 33.9746 16.3196C34.0279 16.313 34.0662 16.3096 34.0896 16.3096C34.0429 16.3596 33.9912 16.4246 33.9346 16.5046C33.8779 16.5846 33.8229 16.668 33.7696 16.7546C33.7162 16.838 33.6712 16.9146 33.6346 16.9846H34.1446C34.1812 16.9846 34.1996 16.993 34.1996 17.0096C34.1996 17.023 34.1896 17.0363 34.1696 17.0496C34.1496 17.0596 34.1229 17.0646 34.0896 17.0646H33.5846C33.5312 17.1613 33.4829 17.248 33.4396 17.3246C33.3996 17.398 33.3579 17.4763 33.3146 17.5596C33.2746 17.643 33.2246 17.7463 33.1646 17.8696C33.1179 17.973 33.0829 18.0613 33.0596 18.1346C33.0396 18.208 33.0296 18.2696 33.0296 18.3196C33.0296 18.383 33.0429 18.428 33.0696 18.4546C33.0962 18.4813 33.1296 18.4946 33.1696 18.4946C33.2096 18.4946 33.2562 18.4813 33.3096 18.4546C33.3829 18.418 33.4562 18.3646 33.5296 18.2946C33.6029 18.2246 33.6729 18.153 33.7396 18.0796C33.7729 18.043 33.8046 18.008 33.8346 17.9746C33.8646 17.9413 33.8929 17.9063 33.9196 17.8696C33.9296 17.8596 33.9379 17.8546 33.9446 17.8546C33.9646 17.8546 33.9746 17.868 33.9746 17.8946C33.9746 17.9146 33.9679 17.9313 33.9546 17.9446C33.8846 18.0313 33.8112 18.1196 33.7346 18.2096C33.6446 18.313 33.5446 18.413 33.4346 18.5096C33.3246 18.6063 33.1929 18.6546 33.0396 18.6546ZM34.2349 18.7146C34.1116 18.7146 34.0133 18.6796 33.9399 18.6096C33.8666 18.5363 33.8299 18.4346 33.8299 18.3046C33.8299 18.2046 33.8483 18.0996 33.8849 17.9896C33.9249 17.8796 33.9633 17.793 33.9999 17.7296C34.0766 17.5896 34.1683 17.4613 34.2749 17.3446C34.3849 17.228 34.4966 17.1346 34.6099 17.0646C34.7266 16.9913 34.8333 16.9546 34.9299 16.9546C35.0199 16.9546 35.0966 16.9796 35.1599 17.0296C35.2266 17.0796 35.2599 17.1463 35.2599 17.2296C35.2599 17.263 35.2516 17.3013 35.2349 17.3446C35.2183 17.388 35.1916 17.433 35.1549 17.4796C35.0216 17.6496 34.8733 17.783 34.7099 17.8796C34.5499 17.973 34.3666 18.043 34.1599 18.0896C34.1466 18.133 34.1349 18.1763 34.1249 18.2196C34.1149 18.2596 34.1066 18.298 34.0999 18.3346C34.0966 18.3513 34.0933 18.368 34.0899 18.3846C34.0899 18.398 34.0899 18.413 34.0899 18.4296C34.0899 18.4963 34.1049 18.5446 34.1349 18.5746C34.1683 18.6013 34.2083 18.6146 34.2549 18.6146C34.3283 18.6146 34.4066 18.5963 34.4899 18.5596C34.5733 18.5196 34.6516 18.4746 34.7249 18.4246C34.7983 18.3746 34.8533 18.3346 34.8899 18.3046C34.9266 18.2713 34.9616 18.238 34.9949 18.2046C35.0316 18.168 35.0716 18.128 35.1149 18.0846C35.1483 18.048 35.1799 18.013 35.2099 17.9796C35.2399 17.943 35.2683 17.9063 35.2949 17.8696C35.3049 17.8596 35.3133 17.8546 35.3199 17.8546C35.3399 17.8546 35.3499 17.8696 35.3499 17.8996C35.3499 17.9163 35.3433 17.9313 35.3299 17.9446C35.2699 18.018 35.2099 18.0913 35.1499 18.1646C35.0899 18.2346 35.0283 18.303 34.9649 18.3696C34.8916 18.4463 34.7899 18.523 34.6599 18.5996C34.5333 18.6763 34.3916 18.7146 34.2349 18.7146ZM34.1899 18.0246C34.2766 17.988 34.3766 17.9346 34.4899 17.8646C34.6066 17.7946 34.7183 17.7113 34.8249 17.6146C34.9349 17.5146 35.0249 17.408 35.0949 17.2946C35.1183 17.258 35.1299 17.2246 35.1299 17.1946C35.1299 17.148 35.1033 17.1246 35.0499 17.1246C35.0133 17.1246 34.9683 17.138 34.9149 17.1646C34.7483 17.2546 34.6049 17.3763 34.4849 17.5296C34.3649 17.683 34.2666 17.848 34.1899 18.0246ZM36.3169 18.6596C36.2069 18.6596 36.1302 18.633 36.0869 18.5796C36.0435 18.5263 36.0219 18.4613 36.0219 18.3846C36.0219 18.2846 36.0452 18.178 36.0919 18.0646C36.1419 17.9513 36.1852 17.863 36.2219 17.7996C36.3119 17.6563 36.4185 17.5196 36.5419 17.3896C36.6652 17.2596 36.7952 17.1546 36.9319 17.0746C37.0719 16.9913 37.2052 16.9496 37.3319 16.9496C37.4185 16.9496 37.5035 16.9696 37.5869 17.0096C37.6035 16.973 37.6185 16.9413 37.6319 16.9146C37.6452 16.8846 37.6585 16.8563 37.6719 16.8296C37.7885 16.623 37.8869 16.448 37.9669 16.3046C38.0502 16.1613 38.1385 16.0496 38.2319 15.9696C38.3285 15.8863 38.4535 15.8363 38.6069 15.8196C38.5169 15.9396 38.4385 16.048 38.3719 16.1446C38.3052 16.2413 38.2419 16.3396 38.1819 16.4396C38.1219 16.5363 38.0602 16.643 37.9969 16.7596C37.9335 16.8763 37.8619 17.0146 37.7819 17.1746C37.7885 17.1946 37.7919 17.208 37.7919 17.2146C37.7919 17.238 37.7835 17.258 37.7669 17.2746C37.7535 17.288 37.7385 17.2946 37.7219 17.2946C37.6519 17.4346 37.5835 17.5763 37.5169 17.7196C37.4535 17.8596 37.4002 17.9896 37.3569 18.1096C37.3169 18.2263 37.2969 18.318 37.2969 18.3846C37.2969 18.4546 37.3219 18.4896 37.3719 18.4896C37.4019 18.4896 37.4385 18.478 37.4819 18.4546C37.5552 18.418 37.6285 18.3663 37.7019 18.2996C37.7785 18.2296 37.8485 18.158 37.9119 18.0846C37.9485 18.048 37.9819 18.013 38.0119 17.9796C38.0419 17.943 38.0702 17.9063 38.0969 17.8696C38.1069 17.8596 38.1152 17.8546 38.1219 17.8546C38.1419 17.8546 38.1519 17.868 38.1519 17.8946C38.1519 17.9146 38.1452 17.9313 38.1319 17.9446C38.0752 18.018 38.0169 18.0913 37.9569 18.1646C37.8969 18.2346 37.8335 18.303 37.7669 18.3696C37.7535 18.383 37.7402 18.398 37.7269 18.4146C37.7135 18.428 37.6985 18.4413 37.6819 18.4546C37.6119 18.5113 37.5402 18.5596 37.4669 18.5996C37.3969 18.6396 37.3335 18.6596 37.2769 18.6596C37.1935 18.6596 37.1369 18.6346 37.1069 18.5846C37.0802 18.5313 37.0669 18.4696 37.0669 18.3996C37.0669 18.353 37.0702 18.3046 37.0769 18.2546C37.0869 18.2046 37.0985 18.1613 37.1119 18.1246C37.1219 18.088 37.1335 18.0463 37.1469 17.9996C37.1635 17.953 37.1819 17.9063 37.2019 17.8596C37.1285 17.973 37.0452 18.0913 36.9519 18.2146C36.8585 18.338 36.7585 18.443 36.6519 18.5296C36.5452 18.6163 36.4335 18.6596 36.3169 18.6596ZM36.3469 18.5346C36.4035 18.5346 36.4869 18.493 36.5969 18.4096C36.6769 18.3463 36.7602 18.2696 36.8469 18.1796C36.9335 18.0863 37.0135 17.9963 37.0869 17.9096C37.1635 17.8196 37.2219 17.7496 37.2619 17.6996C37.3019 17.603 37.3452 17.503 37.3919 17.3996C37.4419 17.293 37.4935 17.188 37.5469 17.0846C37.5202 17.0713 37.4885 17.0646 37.4519 17.0646C37.3685 17.0646 37.2719 17.103 37.1619 17.1796C37.0552 17.253 36.9519 17.343 36.8519 17.4496C36.7385 17.5696 36.6352 17.6996 36.5419 17.8396C36.4485 17.9763 36.3785 18.1013 36.3319 18.2146C36.3085 18.2646 36.2919 18.3096 36.2819 18.3496C36.2752 18.3863 36.2719 18.418 36.2719 18.4446C36.2719 18.5046 36.2969 18.5346 36.3469 18.5346ZM38.4 18.7146C38.2767 18.7146 38.1783 18.6796 38.105 18.6096C38.0317 18.5363 37.995 18.4346 37.995 18.3046C37.995 18.2046 38.0133 18.0996 38.05 17.9896C38.09 17.8796 38.1283 17.793 38.165 17.7296C38.2417 17.5896 38.3333 17.4613 38.44 17.3446C38.55 17.228 38.6617 17.1346 38.775 17.0646C38.8917 16.9913 38.9983 16.9546 39.095 16.9546C39.185 16.9546 39.2617 16.9796 39.325 17.0296C39.3917 17.0796 39.425 17.1463 39.425 17.2296C39.425 17.263 39.4167 17.3013 39.4 17.3446C39.3833 17.388 39.3567 17.433 39.32 17.4796C39.1867 17.6496 39.0383 17.783 38.875 17.8796C38.715 17.973 38.5317 18.043 38.325 18.0896C38.3117 18.133 38.3 18.1763 38.29 18.2196C38.28 18.2596 38.2717 18.298 38.265 18.3346C38.2617 18.3513 38.2583 18.368 38.255 18.3846C38.255 18.398 38.255 18.413 38.255 18.4296C38.255 18.4963 38.27 18.5446 38.3 18.5746C38.3333 18.6013 38.3733 18.6146 38.42 18.6146C38.4933 18.6146 38.5717 18.5963 38.655 18.5596C38.7383 18.5196 38.8167 18.4746 38.89 18.4246C38.9633 18.3746 39.0183 18.3346 39.055 18.3046C39.0917 18.2713 39.1267 18.238 39.16 18.2046C39.1967 18.168 39.2367 18.128 39.28 18.0846C39.3133 18.048 39.345 18.013 39.375 17.9796C39.405 17.943 39.4333 17.9063 39.46 17.8696C39.47 17.8596 39.4783 17.8546 39.485 17.8546C39.505 17.8546 39.515 17.8696 39.515 17.8996C39.515 17.9163 39.5083 17.9313 39.495 17.9446C39.435 18.018 39.375 18.0913 39.315 18.1646C39.255 18.2346 39.1933 18.303 39.13 18.3696C39.0567 18.4463 38.955 18.523 38.825 18.5996C38.6983 18.6763 38.5567 18.7146 38.4 18.7146ZM38.355 18.0246C38.4417 17.988 38.5417 17.9346 38.655 17.8646C38.7717 17.7946 38.8833 17.7113 38.99 17.6146C39.1 17.5146 39.19 17.408 39.26 17.2946C39.2833 17.258 39.295 17.2246 39.295 17.1946C39.295 17.148 39.2683 17.1246 39.215 17.1246C39.1783 17.1246 39.1333 17.138 39.08 17.1646C38.9133 17.2546 38.77 17.3763 38.65 17.5296C38.53 17.683 38.4317 17.848 38.355 18.0246ZM39.9073 18.7546C39.7806 18.7546 39.6473 18.703 39.5073 18.5996C39.4473 18.5563 39.3956 18.4963 39.3523 18.4196C39.329 18.3796 39.3173 18.3363 39.3173 18.2896C39.3173 18.2363 39.3356 18.2096 39.3723 18.2096C39.389 18.2096 39.409 18.2246 39.4323 18.2546C39.459 18.2813 39.4823 18.3163 39.5023 18.3596C39.5323 18.4263 39.564 18.4846 39.5973 18.5346C39.6306 18.5813 39.684 18.6046 39.7573 18.6046C39.824 18.6046 39.879 18.5663 39.9223 18.4896C39.9656 18.413 39.999 18.3146 40.0223 18.1946C40.049 18.0746 40.0673 17.948 40.0773 17.8146C40.0906 17.6813 40.099 17.5596 40.1023 17.4496C40.1056 17.3363 40.109 17.2496 40.1123 17.1896C39.9556 17.3796 39.8073 17.5596 39.6673 17.7296C39.5306 17.8963 39.4006 18.053 39.2773 18.1996C39.264 18.2163 39.2523 18.2246 39.2423 18.2246C39.2323 18.2246 39.2273 18.2146 39.2273 18.1946C39.2273 18.158 39.2356 18.128 39.2523 18.1046C39.319 18.0246 39.3923 17.9363 39.4723 17.8396C39.5523 17.7396 39.6323 17.6396 39.7123 17.5396C39.7956 17.4396 39.869 17.3513 39.9323 17.2746C39.999 17.1946 40.0473 17.1346 40.0773 17.0946C40.0773 16.9946 40.1006 16.9163 40.1473 16.8596C40.194 16.7996 40.2506 16.7563 40.3173 16.7296C40.384 16.703 40.4473 16.6896 40.5073 16.6896C40.564 16.6896 40.6056 16.6963 40.6323 16.7096C40.6556 16.7196 40.6673 16.7313 40.6673 16.7446C40.6673 16.7546 40.6506 16.7646 40.6173 16.7746C40.5373 16.7946 40.4806 16.838 40.4473 16.9046C40.414 16.968 40.3923 17.0463 40.3823 17.1396C40.3756 17.2296 40.3723 17.3263 40.3723 17.4296C40.3723 17.583 40.3656 17.7446 40.3523 17.9146C40.339 18.0846 40.3173 18.228 40.2873 18.3446C40.2806 18.368 40.2706 18.393 40.2573 18.4196C40.2473 18.4463 40.2373 18.473 40.2273 18.4996C40.3206 18.433 40.4123 18.3613 40.5023 18.2846C40.5923 18.2046 40.6623 18.138 40.7123 18.0846C40.749 18.048 40.7806 18.013 40.8073 17.9796C40.8373 17.943 40.8673 17.9063 40.8973 17.8696C40.904 17.8596 40.9123 17.8546 40.9223 17.8546C40.9423 17.8546 40.9523 17.868 40.9523 17.8946C40.9523 17.9113 40.944 17.928 40.9273 17.9446C40.8573 18.028 40.7856 18.1163 40.7123 18.2096C40.6423 18.303 40.564 18.3846 40.4773 18.4546C40.4406 18.4846 40.394 18.523 40.3373 18.5696C40.2806 18.6163 40.224 18.6546 40.1673 18.6846C40.074 18.7313 39.9873 18.7546 39.9073 18.7546Z" fill="#235B55"/>
<path d="M27.3812 26.5349C27.5245 26.2682 27.6428 26.0115 27.7362 25.7649C27.8328 25.5149 27.9428 25.2632 28.0662 25.0099C28.1028 24.9432 28.1495 24.8982 28.2062 24.8749C28.2628 24.8482 28.3178 24.8349 28.3712 24.8349C28.4145 24.8349 28.4528 24.8399 28.4862 24.8499C28.4762 24.8732 28.4495 24.9199 28.4062 24.9899C28.3662 25.0565 28.3228 25.1332 28.2762 25.2199C28.2428 25.2799 28.1928 25.3732 28.1262 25.4999C28.0595 25.6232 27.9978 25.7515 27.9412 25.8849C27.9712 25.8415 28.0162 25.7815 28.0762 25.7049C28.1395 25.6249 28.2095 25.5399 28.2862 25.4499C28.3662 25.3599 28.4478 25.2749 28.5312 25.1949C28.6145 25.1149 28.6962 25.0499 28.7762 24.9999C28.8562 24.9465 28.9278 24.9199 28.9912 24.9199C29.0578 24.9199 29.1028 24.9382 29.1262 24.9749C29.1528 25.0082 29.1662 25.0482 29.1662 25.0949C29.1662 25.1549 29.1428 25.2232 29.0962 25.2999C29.0528 25.3732 29.0078 25.4565 28.9612 25.5499C28.9345 25.5999 28.9012 25.6599 28.8612 25.7299C28.8245 25.7965 28.7878 25.8632 28.7512 25.9299C28.7178 25.9932 28.6912 26.0465 28.6712 26.0899C28.7045 26.0265 28.7545 25.9465 28.8212 25.8499C28.8878 25.7499 28.9645 25.6482 29.0512 25.5449C29.1412 25.4382 29.2328 25.3382 29.3262 25.2449C29.4195 25.1482 29.5095 25.0715 29.5962 25.0149C29.6862 24.9549 29.7645 24.9249 29.8312 24.9249C29.8978 24.9249 29.9428 24.9415 29.9662 24.9749C29.9928 25.0082 30.0062 25.0482 30.0062 25.0949C30.0062 25.1582 29.9845 25.2332 29.9412 25.3199C29.9012 25.4065 29.8495 25.4949 29.7862 25.5849C29.7262 25.6749 29.6662 25.7615 29.6062 25.8449C29.5495 25.9282 29.5045 26.0015 29.4712 26.0649C29.4245 26.1582 29.4012 26.2299 29.4012 26.2799C29.4012 26.3332 29.4228 26.3599 29.4662 26.3599C29.5028 26.3599 29.5428 26.3465 29.5862 26.3199C29.6628 26.2832 29.7378 26.2315 29.8112 26.1649C29.8845 26.0949 29.9528 26.0215 30.0162 25.9449C30.0495 25.9049 30.0845 25.8649 30.1212 25.8249C30.1612 25.7815 30.1878 25.7515 30.2012 25.7349C30.2078 25.7249 30.2162 25.7199 30.2262 25.7199C30.2462 25.7199 30.2562 25.7332 30.2562 25.7599C30.2562 25.7765 30.2478 25.7932 30.2312 25.8099C30.1978 25.8532 30.1628 25.8982 30.1262 25.9449C30.0895 25.9882 30.0512 26.0315 30.0112 26.0749C29.9778 26.1182 29.9412 26.1615 29.9012 26.2049C29.8645 26.2449 29.8245 26.2832 29.7812 26.3199C29.6378 26.4532 29.5045 26.5199 29.3812 26.5199C29.3112 26.5199 29.2612 26.4999 29.2312 26.4599C29.2012 26.4165 29.1862 26.3632 29.1862 26.2999C29.1862 26.2132 29.2078 26.1132 29.2512 25.9999C29.2978 25.8832 29.3528 25.7732 29.4162 25.6699C29.4228 25.6599 29.4445 25.6282 29.4812 25.5749C29.5178 25.5215 29.5578 25.4599 29.6012 25.3899C29.6445 25.3199 29.6828 25.2532 29.7162 25.1899C29.7495 25.1265 29.7662 25.0815 29.7662 25.0549C29.7662 25.0315 29.7512 25.0249 29.7212 25.0349C29.6945 25.0449 29.6478 25.0782 29.5812 25.1349C29.5012 25.2049 29.4112 25.2932 29.3112 25.3999C29.2112 25.5065 29.1095 25.6249 29.0062 25.7549C28.9062 25.8815 28.8162 26.0165 28.7362 26.1599C28.7195 26.1932 28.6962 26.2265 28.6662 26.2599C28.6362 26.2932 28.5962 26.3099 28.5462 26.3099H28.5312C28.5112 26.3099 28.4878 26.3032 28.4612 26.2899C28.4378 26.2765 28.4262 26.2465 28.4262 26.1999C28.4262 26.1165 28.4528 26.0182 28.5062 25.9049C28.5595 25.7915 28.6212 25.6765 28.6912 25.5599C28.7612 25.4399 28.8212 25.3315 28.8712 25.2349C28.8878 25.1982 28.9012 25.1649 28.9112 25.1349C28.9245 25.1049 28.9312 25.0815 28.9312 25.0649C28.9312 25.0382 28.9162 25.0299 28.8862 25.0399C28.8595 25.0465 28.8128 25.0782 28.7462 25.1349C28.6662 25.2015 28.5745 25.2899 28.4712 25.3999C28.3712 25.5099 28.2695 25.6282 28.1662 25.7549C28.0628 25.8815 27.9678 26.0065 27.8812 26.1299C27.7945 26.2499 27.7278 26.3549 27.6812 26.4449C27.6678 26.4749 27.6495 26.4932 27.6262 26.4999C27.6062 26.5032 27.5728 26.5065 27.5262 26.5099C27.4928 26.5099 27.4662 26.5099 27.4462 26.5099C27.4262 26.5132 27.4045 26.5215 27.3812 26.5349ZM30.5023 26.5799C30.379 26.5799 30.2807 26.5449 30.2073 26.4749C30.134 26.4015 30.0973 26.2999 30.0973 26.1699C30.0973 26.0699 30.1157 25.9649 30.1523 25.8549C30.1923 25.7449 30.2307 25.6582 30.2673 25.5949C30.344 25.4549 30.4357 25.3265 30.5423 25.2099C30.6523 25.0932 30.764 24.9999 30.8773 24.9299C30.994 24.8565 31.1007 24.8199 31.1973 24.8199C31.2873 24.8199 31.364 24.8449 31.4273 24.8949C31.494 24.9449 31.5273 25.0115 31.5273 25.0949C31.5273 25.1282 31.519 25.1665 31.5023 25.2099C31.4857 25.2532 31.459 25.2982 31.4223 25.3449C31.289 25.5149 31.1407 25.6482 30.9773 25.7449C30.8173 25.8382 30.634 25.9082 30.4273 25.9549C30.414 25.9982 30.4023 26.0415 30.3923 26.0849C30.3823 26.1249 30.374 26.1632 30.3673 26.1999C30.364 26.2165 30.3607 26.2332 30.3573 26.2499C30.3573 26.2632 30.3573 26.2782 30.3573 26.2949C30.3573 26.3615 30.3723 26.4099 30.4023 26.4399C30.4357 26.4665 30.4757 26.4799 30.5223 26.4799C30.5957 26.4799 30.674 26.4615 30.7573 26.4249C30.8407 26.3849 30.919 26.3399 30.9923 26.2899C31.0657 26.2399 31.1207 26.1999 31.1573 26.1699C31.194 26.1365 31.229 26.1032 31.2623 26.0699C31.299 26.0332 31.339 25.9932 31.3823 25.9499C31.4157 25.9132 31.4473 25.8782 31.4773 25.8449C31.5073 25.8082 31.5357 25.7715 31.5623 25.7349C31.5723 25.7249 31.5807 25.7199 31.5873 25.7199C31.6073 25.7199 31.6173 25.7349 31.6173 25.7649C31.6173 25.7815 31.6107 25.7965 31.5973 25.8099C31.5373 25.8832 31.4773 25.9565 31.4173 26.0299C31.3573 26.0999 31.2957 26.1682 31.2323 26.2349C31.159 26.3115 31.0573 26.3882 30.9273 26.4649C30.8007 26.5415 30.659 26.5799 30.5023 26.5799ZM30.4573 25.8899C30.544 25.8532 30.644 25.7999 30.7573 25.7299C30.874 25.6599 30.9857 25.5765 31.0923 25.4799C31.2023 25.3799 31.2923 25.2732 31.3623 25.1599C31.3857 25.1232 31.3973 25.0899 31.3973 25.0599C31.3973 25.0132 31.3707 24.9899 31.3173 24.9899C31.2807 24.9899 31.2357 25.0032 31.1823 25.0299C31.0157 25.1199 30.8723 25.2415 30.7523 25.3949C30.6323 25.5482 30.534 25.7132 30.4573 25.8899ZM31.3323 24.5599C31.3257 24.5565 31.304 24.5449 31.2673 24.5249C31.2307 24.5049 31.1923 24.4815 31.1523 24.4549C31.1123 24.4282 31.0823 24.4082 31.0623 24.3949C31.0323 24.3749 30.989 24.3465 30.9323 24.3099C30.879 24.2699 30.829 24.2315 30.7823 24.1949C30.739 24.1582 30.7157 24.1365 30.7123 24.1299C30.7123 24.1165 30.724 24.1015 30.7473 24.0849C30.7707 24.0649 30.804 24.0532 30.8473 24.0499H30.8523C30.8757 24.0499 30.8973 24.0582 30.9173 24.0749C30.9407 24.0882 30.959 24.1032 30.9723 24.1199C31.009 24.1532 31.0657 24.2099 31.1423 24.2899C31.219 24.3665 31.289 24.4332 31.3523 24.4899C31.3623 24.4999 31.3673 24.5115 31.3673 24.5249C31.3673 24.5549 31.3557 24.5665 31.3323 24.5599ZM32.1696 26.5299C32.1063 26.5299 32.053 26.5082 32.0096 26.4649C31.9663 26.4215 31.9446 26.3599 31.9446 26.2799C31.9446 26.2432 31.948 26.2099 31.9546 26.1799C31.9613 26.1465 31.9696 26.1182 31.9796 26.0949C31.9963 26.0449 32.028 25.9799 32.0746 25.8999C32.1213 25.8199 32.173 25.7365 32.2296 25.6499C32.2863 25.5599 32.3346 25.4799 32.3746 25.4099C32.4246 25.3232 32.4496 25.2482 32.4496 25.1849C32.4496 25.1149 32.4196 25.0599 32.3596 25.0199C32.3363 25.0032 32.313 24.9882 32.2896 24.9749C32.2663 24.9582 32.2463 24.9432 32.2296 24.9299L32.0896 25.1549C32.0096 25.2649 31.9263 25.3782 31.8396 25.4949C31.753 25.6115 31.6696 25.7199 31.5896 25.8199C31.5096 25.9165 31.4413 25.9982 31.3846 26.0649C31.3746 26.0749 31.3646 26.0799 31.3546 26.0799C31.338 26.0799 31.3246 26.0715 31.3146 26.0549C31.3046 26.0382 31.3063 26.0232 31.3196 26.0099C31.4496 25.8632 31.5746 25.7132 31.6946 25.5599C31.8146 25.4065 31.9263 25.2432 32.0296 25.0699L32.1496 24.8649C32.1363 24.8549 32.1146 24.8332 32.0846 24.7999C32.058 24.7665 32.0313 24.7299 32.0046 24.6899C31.9813 24.6465 31.9696 24.6099 31.9696 24.5799C31.9696 24.5532 31.978 24.5332 31.9946 24.5199C32.0146 24.5032 32.048 24.4949 32.0946 24.4949C32.208 24.4949 32.263 24.6165 32.2596 24.8599C32.3063 24.8965 32.358 24.9249 32.4146 24.9449C32.4713 24.9649 32.5246 24.9849 32.5746 25.0049C32.628 25.0215 32.6713 25.0465 32.7046 25.0799C32.738 25.1132 32.7546 25.1632 32.7546 25.2299C32.7546 25.2865 32.738 25.3532 32.7046 25.4299C32.6746 25.5032 32.638 25.5682 32.5946 25.6249C32.558 25.6749 32.5146 25.7349 32.4646 25.8049C32.418 25.8749 32.373 25.9449 32.3296 26.0149C32.2863 26.0849 32.2546 26.1482 32.2346 26.2049C32.218 26.2482 32.2096 26.2799 32.2096 26.2999C32.2096 26.3432 32.2296 26.3649 32.2696 26.3649C32.3063 26.3649 32.3513 26.3499 32.4046 26.3199C32.4746 26.2832 32.5463 26.2315 32.6196 26.1649C32.6963 26.0949 32.7663 26.0232 32.8296 25.9499C32.8663 25.9132 32.8996 25.8782 32.9296 25.8449C32.9596 25.8082 32.988 25.7715 33.0146 25.7349C33.0246 25.7249 33.033 25.7199 33.0396 25.7199C33.0596 25.7199 33.0696 25.7349 33.0696 25.7649C33.0696 25.7815 33.063 25.7965 33.0496 25.8099C32.9796 25.8932 32.908 25.9815 32.8346 26.0749C32.7613 26.1649 32.683 26.2465 32.5996 26.3199C32.5496 26.3599 32.4846 26.4049 32.4046 26.4549C32.3246 26.5049 32.2463 26.5299 32.1696 26.5299ZM33.3246 26.5799C33.2013 26.5799 33.1029 26.5449 33.0296 26.4749C32.9563 26.4015 32.9196 26.2999 32.9196 26.1699C32.9196 26.0699 32.9379 25.9649 32.9746 25.8549C33.0146 25.7449 33.0529 25.6582 33.0896 25.5949C33.1663 25.4549 33.2579 25.3265 33.3646 25.2099C33.4746 25.0932 33.5863 24.9999 33.6996 24.9299C33.8163 24.8565 33.9229 24.8199 34.0196 24.8199C34.1096 24.8199 34.1863 24.8449 34.2496 24.8949C34.3163 24.9449 34.3496 25.0115 34.3496 25.0949C34.3496 25.1282 34.3413 25.1665 34.3246 25.2099C34.3079 25.2532 34.2813 25.2982 34.2446 25.3449C34.1113 25.5149 33.9629 25.6482 33.7996 25.7449C33.6396 25.8382 33.4563 25.9082 33.2496 25.9549C33.2363 25.9982 33.2246 26.0415 33.2146 26.0849C33.2046 26.1249 33.1963 26.1632 33.1896 26.1999C33.1863 26.2165 33.1829 26.2332 33.1796 26.2499C33.1796 26.2632 33.1796 26.2782 33.1796 26.2949C33.1796 26.3615 33.1946 26.4099 33.2246 26.4399C33.2579 26.4665 33.2979 26.4799 33.3446 26.4799C33.4179 26.4799 33.4963 26.4615 33.5796 26.4249C33.6629 26.3849 33.7413 26.3399 33.8146 26.2899C33.8879 26.2399 33.9429 26.1999 33.9796 26.1699C34.0163 26.1365 34.0513 26.1032 34.0846 26.0699C34.1213 26.0332 34.1613 25.9932 34.2046 25.9499C34.2379 25.9132 34.2696 25.8782 34.2996 25.8449C34.3296 25.8082 34.3579 25.7715 34.3846 25.7349C34.3946 25.7249 34.4029 25.7199 34.4096 25.7199C34.4296 25.7199 34.4396 25.7349 34.4396 25.7649C34.4396 25.7815 34.4329 25.7965 34.4196 25.8099C34.3596 25.8832 34.2996 25.9565 34.2396 26.0299C34.1796 26.0999 34.1179 26.1682 34.0546 26.2349C33.9813 26.3115 33.8796 26.3882 33.7496 26.4649C33.6229 26.5415 33.4813 26.5799 33.3246 26.5799ZM33.2796 25.8899C33.3663 25.8532 33.4663 25.7999 33.5796 25.7299C33.6963 25.6599 33.8079 25.5765 33.9146 25.4799C34.0246 25.3799 34.1146 25.2732 34.1846 25.1599C34.2079 25.1232 34.2196 25.0899 34.2196 25.0599C34.2196 25.0132 34.1929 24.9899 34.1396 24.9899C34.1029 24.9899 34.0579 25.0032 34.0046 25.0299C33.8379 25.1199 33.6946 25.2415 33.5746 25.3949C33.4546 25.5482 33.3563 25.7132 33.2796 25.8899ZM34.8319 26.6199C34.7052 26.6199 34.5719 26.5682 34.4319 26.4649C34.3719 26.4215 34.3202 26.3615 34.2769 26.2849C34.2536 26.2449 34.2419 26.2015 34.2419 26.1549C34.2419 26.1015 34.2602 26.0749 34.2969 26.0749C34.3136 26.0749 34.3336 26.0899 34.3569 26.1199C34.3836 26.1465 34.4069 26.1815 34.4269 26.2249C34.4569 26.2915 34.4886 26.3499 34.5219 26.3999C34.5552 26.4465 34.6086 26.4699 34.6819 26.4699C34.7486 26.4699 34.8036 26.4315 34.8469 26.3549C34.8902 26.2782 34.9236 26.1799 34.9469 26.0599C34.9736 25.9399 34.9919 25.8132 35.0019 25.6799C35.0152 25.5465 35.0236 25.4249 35.0269 25.3149C35.0302 25.2015 35.0336 25.1149 35.0369 25.0549C34.8802 25.2449 34.7319 25.4249 34.5919 25.5949C34.4552 25.7615 34.3252 25.9182 34.2019 26.0649C34.1886 26.0815 34.1769 26.0899 34.1669 26.0899C34.1569 26.0899 34.1519 26.0799 34.1519 26.0599C34.1519 26.0232 34.1602 25.9932 34.1769 25.9699C34.2436 25.8899 34.3169 25.8015 34.3969 25.7049C34.4769 25.6049 34.5569 25.5049 34.6369 25.4049C34.7202 25.3049 34.7936 25.2165 34.8569 25.1399C34.9236 25.0599 34.9719 24.9999 35.0019 24.9599C35.0019 24.8599 35.0252 24.7815 35.0719 24.7249C35.1186 24.6649 35.1752 24.6215 35.2419 24.5949C35.3086 24.5682 35.3719 24.5549 35.4319 24.5549C35.4886 24.5549 35.5302 24.5615 35.5569 24.5749C35.5802 24.5849 35.5919 24.5965 35.5919 24.6099C35.5919 24.6199 35.5752 24.6299 35.5419 24.6399C35.4619 24.6599 35.4052 24.7032 35.3719 24.7699C35.3386 24.8332 35.3169 24.9115 35.3069 25.0049C35.3002 25.0949 35.2969 25.1915 35.2969 25.2949C35.2969 25.4482 35.2902 25.6099 35.2769 25.7799C35.2636 25.9499 35.2419 26.0932 35.2119 26.2099C35.2052 26.2332 35.1952 26.2582 35.1819 26.2849C35.1719 26.3115 35.1619 26.3382 35.1519 26.3649C35.2452 26.2982 35.3369 26.2265 35.4269 26.1499C35.5169 26.0699 35.5869 26.0032 35.6369 25.9499C35.6736 25.9132 35.7052 25.8782 35.7319 25.8449C35.7619 25.8082 35.7919 25.7715 35.8219 25.7349C35.8286 25.7249 35.8369 25.7199 35.8469 25.7199C35.8669 25.7199 35.8769 25.7332 35.8769 25.7599C35.8769 25.7765 35.8686 25.7932 35.8519 25.8099C35.7819 25.8932 35.7102 25.9815 35.6369 26.0749C35.5669 26.1682 35.4886 26.2499 35.4019 26.3199C35.3652 26.3499 35.3186 26.3882 35.2619 26.4349C35.2052 26.4815 35.1486 26.5199 35.0919 26.5499C34.9986 26.5965 34.9119 26.6199 34.8319 26.6199Z" fill="#235B55"/>
<path d="M54.7323 7.12097C54.8157 6.64433 54.6646 5.92286 54.1046 5.73012C53.7113 5.59468 53.2348 5.75878 52.9118 6.13384C52.9639 5.52176 52.7606 4.96178 52.3778 4.77946C51.7813 4.49556 50.8463 5.18055 50.6796 5.92546C50.6405 6.09476 50.6327 6.26407 50.651 6.42555C50.7213 7.58458 50.7916 8.74361 50.862 9.90265C51.9064 9.31141 52.9508 8.72017 53.9952 8.12893C54.0812 8.07945 54.6281 7.75909 54.7375 7.12357L54.7323 7.12097Z" fill="#FFD0B8"/>
<path d="M11.9523 53.2744C11.4757 52.3498 11.9757 50.998 12.6581 50.8418C12.9368 50.7792 13.2104 50.9199 13.3927 51.0475C13.4005 50.9147 13.4578 50.1125 14.0464 49.74C14.8174 49.2504 16.0311 49.7999 16.4348 50.5839C16.5337 50.774 16.5936 50.9746 16.6249 51.1725C16.901 52.5816 17.1771 53.9881 17.4505 55.3971C16.018 55.0143 14.5855 54.6314 13.153 54.2459C12.6581 54.1183 12.2102 53.7797 11.9523 53.2744Z" fill="#FFD0B8"/>
<path d="M16.0828 45.9716C15.963 45.0184 16.7235 43.9245 17.5804 43.9297C18.1378 43.9323 18.5442 44.3985 18.6744 44.56C18.6978 44.3282 18.7941 43.5754 19.263 43.3723C19.9193 43.0884 21.0914 43.9922 21.2164 44.9845C21.2424 45.1981 21.2321 45.4038 21.193 45.6018C20.969 47.0187 20.7451 48.4356 20.5185 49.8525C19.3047 49.0008 18.0909 48.1491 16.8746 47.2974C16.4553 47.0083 16.1506 46.5368 16.0803 45.9716H16.0828Z" fill="#FFD0B8"/>
<path d="M7.50148 42.943C7.29312 41.9455 8.07445 40.7578 8.82717 40.7865C9.30901 40.8047 9.65808 41.3126 9.79091 41.5288C9.79091 41.461 9.82479 40.3906 10.4577 40.0963C11.1818 39.7603 12.3407 40.612 12.5335 41.547C12.5777 41.758 12.583 41.9637 12.5595 42.1643C12.4501 43.5942 12.3407 45.0241 12.2313 46.4566C10.9525 45.7065 9.67361 44.9538 8.39477 44.2037C7.95199 43.951 7.61087 43.503 7.49627 42.9457L7.50148 42.943Z" fill="#FFD0B8"/>
</svg>
