<svg width="64" height="58" viewBox="0 0 64 58" fill="none" xmlns="http://www.w3.org/2000/svg">
<g id="Group 137">
<path id="Vector" d="M62.4989 32.2289C60.436 26.811 56.5993 23.0598 51.1299 20.9143C49.6356 20.3287 48.076 19.9856 46.4761 19.7798C46.5025 19.5022 46.7075 19.4092 46.8427 19.275C47.8151 18.3083 48.7844 17.3369 49.7832 16.3961C50.0752 16.1201 50.0659 15.96 49.8034 15.6763C49.0966 14.9108 48.4193 14.1179 47.7421 13.3265C47.5448 13.0962 47.346 12.9697 47.0151 12.9727C45.1138 12.991 43.2141 12.9864 41.3128 12.9758C41.0378 12.9742 40.853 13.0581 40.679 13.264C40.1664 13.8739 39.6336 14.4671 39.1086 15.0664C38.5338 15.7221 38.5628 16.3605 39.1956 16.9816C40.1089 17.8783 41.0238 18.7718 41.9714 19.699C41.8409 19.76 41.7912 19.7996 41.7384 19.8057C38.2651 20.2342 35.1351 21.4922 32.3577 23.5798C32.0284 23.8268 31.8435 23.7414 31.5686 23.5356C29.5291 22.0076 27.2627 20.9326 24.782 20.286C23.892 20.0543 22.9864 19.9079 22.0683 19.763C22.1289 19.5007 22.3231 19.4001 22.4613 19.2628C23.4353 18.2976 24.4061 17.3278 25.4018 16.3839C25.6674 16.1323 25.6954 15.9843 25.4375 15.7038C24.7028 14.9078 23.996 14.0859 23.2939 13.2624C23.1184 13.055 22.932 12.9758 22.6602 12.9773C20.7589 12.988 18.8591 12.988 16.9578 12.9773C16.6611 12.9758 16.4592 13.0627 16.2712 13.2838C15.5691 14.1087 14.8639 14.9291 14.1307 15.7282C13.8977 15.9828 13.9039 16.1216 14.1525 16.3564C14.9571 17.1143 15.7322 17.9042 16.5291 18.6697C16.8739 19.0021 17.2436 19.3086 17.6025 19.6273C16.3116 19.9262 15.1342 20.1275 14.0111 20.5087C7.00241 22.8844 2.54119 27.5735 0.725324 34.6611C0.537369 35.3946 0.594843 36.1768 0.25 36.8737V37.4821C0.326114 37.5492 0.310586 37.6392 0.313693 37.7261C0.310586 37.8115 0.326114 37.903 0.25 37.9701V39.6734C0.326114 39.7405 0.310586 39.8305 0.313693 39.9174C0.310586 40.0028 0.326114 40.0943 0.25 40.1614V40.8918C0.489216 41.0519 0.439514 41.3233 0.469027 41.5414C0.74863 43.5649 1.32648 45.5015 2.29732 47.3039C6.02536 54.2147 11.9079 57.818 19.8486 57.9872C24.0908 58.0772 27.9664 56.7384 31.3822 54.2345C31.842 53.8975 32.1154 53.8807 32.5845 54.2269C35.5048 56.3831 38.8119 57.6106 42.4452 57.9217C46.254 58.248 49.8841 57.5572 53.2673 55.7868C57.4272 53.6108 60.4531 50.3826 62.2379 46.1008C64.1439 41.5277 64.2666 36.8676 62.5004 32.2289H62.4989ZM27.5827 48.8928C27.8421 49.3335 27.7955 49.4967 27.3854 49.7651C24.9948 51.3311 22.3681 52.0798 19.729 52.0707C13.5902 51.7749 8.93633 48.4994 7.0428 43.0266C5.45838 38.4474 6.30651 34.1579 9.41165 30.4113C13.834 25.0757 21.6878 24.0388 27.4258 27.9074C27.8375 28.1849 27.8095 28.3557 27.5843 28.7385C23.6217 35.451 23.6155 42.1803 27.5812 48.8928H27.5827ZM31.9476 44.3807C30.3011 40.6569 30.3026 37.0003 31.9305 33.2979C33.5895 35.9908 33.7744 41.1388 31.9476 44.3807ZM46.8675 51.7886C43.1348 52.5327 39.6584 51.8008 36.4912 49.6903C36.1634 49.4723 36.1168 49.3259 36.3312 48.9965C38.5991 45.4984 39.5404 41.6557 39.2825 37.5386C39.0837 34.3729 38.1237 31.4253 36.3918 28.7385C36.1494 28.3618 36.1386 28.1865 36.5486 27.9089C44.2626 22.6969 54.9325 26.657 57.261 35.6111C57.5328 36.6557 57.6711 37.7185 57.6602 38.5419C57.6773 45.0761 53.1912 50.5306 46.8691 51.7901L46.8675 51.7886Z" fill="#235B55"/>
<path id="Vector_2" d="M0.25 37.224C1.67251 37.3659 1.438 37.7857 1.29732 38.1869C0.969044 38.4214 0.625168 38.4399 0.25 38.2054V37.2178V37.224Z" fill="#7A7A7A"/>
<path id="Vector_3" d="M32.5722 3.15655C32.5722 3.96151 32.561 4.76647 32.5769 5.57144C32.5844 5.94891 32.505 6.03987 32.2807 6.0429C31.4277 6.05503 31.4277 6.06867 31.4277 4.67097C31.4277 3.36271 31.4361 2.05447 31.423 0.747728C31.4192 0.371775 31.4949 0.277778 31.7192 0.274746C32.5722 0.262619 32.5722 0.248975 32.5722 1.64819C32.5722 2.15148 32.5722 2.65477 32.5722 3.15807V3.15655Z" fill="#A3E6DE"/>
<path id="Vector_4" d="M25.6502 7.59525C25.5955 7.83646 25.3743 7.85656 25.2104 7.9215C24.8626 8.05911 24.5881 8.47041 24.1724 8.32352C24.1044 8.29878 24.0777 8.11478 24.0324 8.00346C23.4448 6.53765 22.8704 5.06411 22.2641 3.60912C22.1055 3.22721 22.1935 3.1066 22.496 2.94889C23.574 2.38761 23.5687 2.37215 24.0578 3.60293C24.5388 4.81052 25.0185 6.01811 25.4996 7.22571C25.5436 7.33703 25.5889 7.44836 25.6488 7.5968L25.6502 7.59525Z" fill="#A3E6DE"/>
<path id="Vector_5" d="M39.1006 8.35476C38.5013 8.13181 37.8771 7.91334 37.2759 7.66346C37.0882 7.58565 37.2797 7.448 37.3352 7.35223C38.2217 5.83945 39.1216 4.33265 40.0043 2.81837C40.1403 2.58494 40.2953 2.51611 40.5787 2.64928C40.5998 2.65976 40.6208 2.67173 40.6457 2.67921C41.778 3.04232 42.0868 3.65731 41.5724 4.52418C40.8793 5.69131 40.1862 6.85994 39.4873 8.02558C39.4088 8.15576 39.4012 8.34728 39.1006 8.35476Z" fill="#A3E6DE"/>
<path id="Vector_6" d="M34.4659 47.7C33.9264 47.232 33.5302 46.6679 33.0958 46.1358C32.8992 45.8935 33.0486 45.7364 33.1476 45.5443C35.6134 40.7025 35.6759 35.8287 33.0471 31.0722C30.566 26.5825 26.6693 23.9711 21.5503 23.4085C16.3337 22.8338 11.9645 24.6312 8.4731 28.5339C3.92711 33.6166 3.59489 41.7178 7.66235 47.1862C9.92697 50.2322 12.8789 52.2491 16.5806 53.0708C20.802 54.0084 24.743 53.2461 28.3349 50.8283C28.8043 50.5127 29.0619 50.4837 29.3819 50.9685C29.5907 51.2856 29.8757 51.5631 30.1607 51.8177C30.4228 52.0524 30.3649 52.1607 30.1058 52.3497C27.8229 54.0114 25.2855 55.0771 22.4997 55.4872C18.9443 56.0116 15.5108 55.5375 12.2876 53.9124C7.45509 51.4762 4.27152 47.6268 3.06607 42.3535C1.62592 36.0497 3.26267 30.4959 7.86504 25.9483C11.5668 22.2895 16.1402 20.7056 21.314 21.1187C26.0216 21.4937 29.9564 23.5381 33.041 27.1375C36.0218 30.6179 37.3721 34.6807 37.177 39.242C37.0459 42.291 36.1361 45.1114 34.4659 47.7Z" fill="#FEFEFE"/>
<path id="Vector_7" d="M29.5295 29.0472C30.0547 29.5196 30.4565 30.0759 30.8903 30.6078C31.0836 30.8455 30.9543 31.0025 30.8523 31.1991C28.3103 36.1735 28.3346 41.1602 31.1065 45.9868C33.5145 50.1809 37.2544 52.6681 42.0522 53.3006C47.3341 53.9971 51.8472 52.2978 55.3878 48.3048C58.5097 44.7828 59.732 40.5902 58.9207 35.9632C57.8734 29.9906 54.3633 25.9397 48.6218 24.0392C44.0523 22.5259 39.6777 23.2559 35.6577 25.9199C35.1995 26.2232 34.9088 26.3115 34.6181 25.7888C34.5694 25.7019 34.4887 25.6334 34.4217 25.5572C34.1553 25.2584 33.65 24.9338 33.6789 24.6686C33.7185 24.309 34.2725 24.1246 34.6241 23.899C38.3702 21.4956 42.4556 20.5385 46.8394 21.3234C53.686 22.5487 58.3909 26.5219 60.5113 33.1118C62.653 39.7657 61.0517 45.7566 56.1519 50.7539C53.3359 53.6267 49.8182 55.2422 45.8256 55.6064C40.6503 56.0789 36.0671 54.5777 32.2603 50.9764C28.4077 47.3325 26.6177 42.8107 26.8201 37.5208C26.9373 34.4697 27.8597 31.6472 29.528 29.0472H29.5295Z" fill="#FEFEFE"/>
<path id="Vector_8" d="M19.8957 15.3141C20.6262 15.3141 21.3566 15.3177 22.0871 15.3116C22.3206 15.3092 22.489 15.3492 22.6642 15.4812C23.5647 16.1641 23.5731 16.1592 22.6491 16.83C21.8353 17.4209 21.0114 18.0057 20.2125 18.6075C19.9791 18.7819 19.8473 18.7976 19.6005 18.6123C18.6148 17.8737 17.6125 17.146 16.5952 16.4292C16.3467 16.2537 16.37 16.1604 16.5635 15.9619C17.0321 15.4812 17.5675 15.1978 18.4364 15.3032C18.91 15.3613 19.4087 15.3128 19.8957 15.3128V15.3141Z" fill="white"/>
<path id="Vector_9" d="M44.128 15.307C44.861 15.307 45.594 15.3131 46.3269 15.3034C46.5897 15.2997 46.7704 15.3544 46.9545 15.5013C47.7996 16.1765 47.8063 16.1717 46.9193 16.8154C46.1027 17.408 45.271 17.9922 44.4761 18.5994C44.2067 18.8058 44.0678 18.7828 43.8118 18.5921C42.8529 17.8744 41.8789 17.1663 40.8899 16.4717C40.6172 16.281 40.5753 16.1717 40.823 15.9252C41.2949 15.4552 41.8354 15.2147 42.6604 15.2973C43.1407 15.3459 43.636 15.3058 44.1247 15.3058L44.128 15.307Z" fill="white"/>
</g>
</svg>
