<svg width="76" height="46" viewBox="0 0 76 46" fill="none" xmlns="http://www.w3.org/2000/svg">
<g id="Group 137">
<path id="Vector" d="M33.3891 45.9955C24.6998 45.9955 16.06 45.3586 7.46324 44.0742C5.56507 43.7911 3.77894 43.3966 2.36985 41.9856C-0.997732 38.6148 0.370416 33.0739 4.97472 31.6136C5.56722 31.4249 5.6728 31.174 5.69865 30.6294C6.16188 21.2566 9.48853 13.1554 16.6223 6.8383C22.3513 1.76487 29.1446 -0.11999 36.733 0.443962C46.3682 1.15802 55.5811 3.57895 64.5484 7.05273C65.0526 7.24786 65.4663 7.2457 65.992 7.06344C68.8037 6.09635 71.3805 6.55738 73.4705 8.70169C75.5324 10.816 76.0387 13.3806 74.9183 16.106C73.798 18.8314 71.6175 20.2552 68.6701 20.3989C67.0089 20.4804 65.4921 19.9443 64.1994 18.885C63.846 18.5955 63.4884 18.4497 63.0445 18.4304C61.7216 18.3725 60.4203 18.5012 59.1232 18.7649C58.6988 18.8507 58.5415 18.9558 58.7332 19.4125C59.8515 22.0886 60.5517 24.8783 60.8857 27.7539C61.002 28.7617 61.0666 29.7759 61.1076 30.7902C61.1248 31.2148 61.1981 31.4163 61.6742 31.5578C64.5958 32.4306 66.5005 35.1496 66.2721 38.0315C66.0372 41.0228 63.7124 43.4009 60.6659 43.8769C51.6275 45.29 42.5374 46.0083 33.387 45.9998L33.3891 45.9955Z" fill="#235B55"/>
<path id="Vector_2" d="M63.7306 35.5738C62.9491 33.738 61.3731 32.7057 59.724 33.0083C55.0475 33.8677 50.3539 34.5186 45.6323 34.9229C38.742 35.5127 31.8497 35.5763 24.9508 35.1339C19.4219 34.7779 13.9295 34.0431 8.45423 33.0846C6.57976 32.7566 5.13257 33.5753 4.23506 35.3805C2.94247 38.2333 4.40684 41.3861 7.23249 41.8921C14.0368 43.11 20.8712 43.9312 27.7529 44.2338C38.8365 44.722 49.8471 43.8804 60.7976 41.8539C63.3592 41.381 64.8042 38.2358 63.7263 35.5763L63.7306 35.5738Z" fill="white"/>
<path id="Vector_3" d="M73.5564 11.2064C72.9574 9.63353 71.2307 8.55066 69.2446 8.50227C66.9675 8.44782 65.2287 9.37541 64.443 11.0672C63.65 12.7349 64.2151 14.6526 65.8035 15.6971C67.6053 16.8808 70.0594 16.9736 71.7788 15.923C73.6582 14.7736 74.3251 13.0051 73.5564 11.2084V11.2064Z" fill="white"/>
<path id="Vector_4" d="M63.866 10.189C64.2054 9.77481 64.1769 9.58636 63.6207 9.39377C60.7782 8.41215 57.9139 7.49264 55.0013 6.71812C49.2441 5.18356 43.3993 4.11911 37.4209 3.69664C31.8388 3.30109 26.6116 4.19987 21.8661 7.11367C16.4439 10.4437 12.835 15.1178 10.632 20.8046C9.79762 22.9604 9.15379 25.1701 8.99612 27.4813C8.7399 28.4339 8.76399 29.4155 8.66106 30.3847C8.59975 30.9646 8.86253 31.1406 9.42752 31.2048C11.7225 31.4595 14.011 31.7784 16.3082 32.0269C20.3419 32.4639 24.3845 32.7704 28.4379 32.876C36.1266 33.079 43.8088 32.9216 51.4603 32.116C54.0553 31.8426 56.6393 31.4926 59.23 31.1716C59.5431 31.1323 59.8081 31.0391 59.7796 30.6456C59.6942 29.459 59.6461 28.2703 59.3811 27.1044C59.3723 27.0236 59.3526 26.9345 59.3176 26.831C59.0044 24.5695 58.2621 22.4261 57.3751 20.3158C57.1846 19.8623 56.9634 19.9741 56.6393 20.1253C54.2173 21.256 52.0931 22.7512 50.3149 24.6814C49.6558 25.3979 48.8587 25.5139 48.2521 25.0024C47.6477 24.495 47.6849 23.7453 48.3484 23.0246C49.4434 21.8338 50.6741 20.7859 52.0077 19.8395C54.2129 18.278 56.6744 17.2281 59.2979 16.4846C60.3687 16.379 61.4199 16.1139 62.5082 16.1264C62.9791 16.1305 63.0667 15.9151 62.9309 15.4782C62.6046 14.4303 62.6528 13.3596 62.8696 12.2951C63.1039 11.5517 63.3557 10.8082 63.8638 10.189H63.866Z" fill="white"/>
<path id="Vector_5" d="M34.7383 6.51961C34.7627 7.3157 34.172 7.86703 33.2464 7.87585C30.7011 7.9001 28.2898 8.53302 26.0225 9.77899C22.3872 11.777 19.7039 14.8423 17.7005 18.653C17.0835 19.8262 16.4705 20.1702 15.756 19.7269C15.0415 19.2815 14.9847 18.481 15.5855 17.3497C18.5063 11.8564 22.5557 7.84498 28.2471 6.0102C29.9278 5.46771 31.6511 5.20529 33.4068 5.24278C34.17 5.26042 34.716 5.8029 34.7363 6.52181L34.7383 6.51961Z" fill="#235B55"/>
</g>
</svg>
