<svg width="20" height="63" viewBox="0 0 20 63" fill="none" xmlns="http://www.w3.org/2000/svg">
<g id="Group 137">
<path id="Vector" d="M11.0759 47.1097C12.5894 45.3191 14.3752 44.1989 16.5393 43.74C17.1652 43.6081 17.7982 43.5105 18.4417 43.5412C19.0252 43.5683 19.4796 43.8954 19.4778 44.4717C19.4672 46.6725 19.7342 48.8894 19.2621 51.0721C18.4258 54.9369 15.3441 57.911 11.5321 58.5289C11.1343 58.5939 11.0229 58.724 11.0353 59.1161C11.0618 59.9708 11.0476 60.8272 11.0423 61.6836C11.037 62.5184 10.6162 63.0189 9.95496 62.999C9.31491 62.9791 8.92947 62.5003 8.92947 61.6909C8.92594 55.8566 8.92063 50.0205 8.94008 44.1863C8.94185 43.6352 8.82692 43.4581 8.2523 43.3533C3.7826 42.5402 0.497507 38.5128 0.462146 33.8692C0.451537 32.5177 0.45861 31.1662 0.462146 29.8147C0.463914 28.7342 0.838748 28.3494 1.91374 28.4072C4.59415 28.5535 6.84137 29.6449 8.64305 31.6848C8.70139 31.7498 8.7562 31.8167 8.81632 31.8871C9.01434 31.7372 8.9224 31.542 8.9224 31.3812C8.92947 29.0829 8.91887 26.7846 8.93655 24.4882C8.94008 24.1051 8.84284 23.9768 8.45563 23.8847C4.88588 23.0445 2.58738 20.0867 2.5803 16.3393C2.56969 11.4501 2.57677 6.56257 2.5803 1.67328C2.5803 0.627123 2.94983 0.256725 3.98946 0.287441C5.88307 0.341646 7.70066 0.7536 9.40685 1.60462C9.81351 1.80698 10.1388 1.83228 10.5649 1.61908C12.31 0.746376 14.1701 0.319962 16.1114 0.285633C17.0061 0.269371 17.3968 0.668683 17.3968 1.5974C17.4003 6.55354 17.4145 11.5097 17.3933 16.4658C17.3774 20.112 15.0364 23.0608 11.5303 23.8847C11.1537 23.9732 11.0406 24.0852 11.0406 24.4791C11.0529 31.9124 11.0494 39.3476 11.0512 46.7809C11.0512 46.8441 11.0635 46.9092 11.0848 47.1115L11.0759 47.1097Z" fill="#235B55"/>
<path id="Vector_2" d="M16.8065 15.4705C16.7565 16.2197 16.8747 16.9725 16.686 17.7234C15.997 20.4639 12.8545 22.336 9.3504 22.0744C5.88726 21.8163 3.21543 19.5421 3.20178 16.7838C3.17904 12.351 3.20178 7.91819 3.18359 3.4836C3.18359 3.07609 3.28137 2.97822 3.83392 3.02093C9.76652 3.47827 15.2352 7.42882 16.47 12.1677C16.7542 13.2603 16.852 14.3601 16.8065 15.4723V15.4705Z" fill="white"/>
<path id="Vector_3" d="M9.98413 39.0345C9.98413 39.593 9.94823 40.1534 9.99547 40.7083C10.037 41.2089 9.81217 41.2294 9.41913 41.1528C6.0726 40.5028 3.32131 37.3177 3.21171 33.9273C3.1777 32.8812 3.23061 31.8332 3.18525 30.789C3.16258 30.264 3.37233 30.2285 3.79749 30.3163C7.17237 31.0131 9.8613 34.1626 9.97279 37.5699C9.98791 38.0575 9.97468 38.5469 9.97468 39.0345C9.97846 39.0345 9.98035 39.0345 9.98413 39.0345Z" fill="white"/>
<path id="Vector_4" d="M18.1539 47.6958C18.3105 49.7231 17.7765 51.8101 16.2389 53.589C15.1031 54.9032 13.6617 55.7246 11.9712 56.139C11.5392 56.2454 11.3392 56.18 11.3656 55.6648C11.4467 54.0688 11.1864 52.4504 11.6637 50.8842C12.5599 47.9497 14.5409 46.1222 17.5218 45.327C17.9935 45.2019 18.2124 45.2803 18.1633 45.8291C18.1161 46.3593 18.1539 46.8969 18.1539 47.6996V47.6958Z" fill="white"/>
<path id="Vector_5" d="M16.8171 7.10179C15.6079 5.73367 14.2946 4.70715 12.7271 3.74351C13.9848 3.31693 15.2472 3.12148 16.5443 3.01441C16.7246 2.99911 16.8148 3.0484 16.8148 3.17927C16.8148 4.42672 16.8148 5.67418 16.8148 7.10179H16.8171Z" fill="white"/>
</g>
</svg>
